<?xml version="1.0" standalone="no"?><svg xmlns:xlink="http://www.w3.org/1999/xlink" xmlns="http://www.w3.org/2000/svg" viewBox="0 0 1000 916.6666666666667" preserveAspectRatio="xMaxYMax slice"><g transform="scale(1.8115942028985508)"><rect x="0" y="0" width="552" height="506" fill="#ffffff"/><rect x="0" y="0" width="46" height="46" fill="#9097b1"/><rect x="0" y="0" width="46" height="46" fill="#9ba1b9"/><rect x="46" y="0" width="46" height="46" fill="#a8adc2"/><polygon points="92,0 92,46 46,46" fill="#bbbfcf"/><rect x="92" y="0" width="46" height="46" fill="#ffffff"/><rect x="92" y="0" width="23" height="23" fill="#5e688e"/><path d="M 92 0 A 23 23 0 0 0 115 23 L 115 0L92 0" fill="#838ba8"/><rect x="115" y="0" width="23" height="23" fill="#848ca9"/><path d="M 115 23 A 23 23 0 0 0 138 0 L 115 0L115 23" fill="#99a0b7"/><rect x="92" y="23" width="23" height="23" fill="#8d94af"/><path d="M 92 46 A 23 23 0 0 1  115 23 L 115 46L92 46" fill="#848ca8"/><rect x="115" y="23" width="23" height="23" fill="#cbcfdb"/><path d="M 115 23 A 23 23 0 0 1 138 46 L 115 46L115 23" fill="#f8f8fa"/><rect x="138" y="0" width="46" height="46" fill="#ffffff"/><rect x="138" y="0" width="23" height="23" fill="#f4f5f8"/><path d="M 138 0 A 23 23 0 0 1 161 23 L 138 23L138 0" fill="#9aa0b8"/><rect x="161" y="0" width="23" height="23" fill="#c3c7d5"/><path d="M 161 23 A 23 23 0 0 1  184 0 L 184 23L161 23" fill="#989fb7"/><rect x="138" y="23" width="23" height="23" fill="#9299b2"/><path d="M 138 46 A 23 23 0 0 0 161 23 L 138 23L138 46" fill="#d2d5df"/><rect x="161" y="23" width="23" height="23" fill="#c9ccd9"/><path d="M 161 23 A 23 23 0 0 0 184 46 L 184 23L161 23" fill="#e9ebf0"/><rect x="184" y="0" width="46" height="46" fill="#a7adc1"/><polygon points="184,0 230,0 230,46" fill="#bcc1d0"/><rect x="230" y="0" width="46" height="46" fill="#ffffff"/><rect x="230" y="0" width="23" height="23" fill="#777f9f"/><polygon points="253,0 253,23 230,23" fill="#b5bacb"/><rect x="253" y="0" width="23" height="23" fill="#f7f7f9"/><polygon points="253,0 276,23 253,23" fill="#ced2dd"/><rect x="230" y="23" width="23" height="23" fill="#9097b1"/><polygon points="230,23 253,23 230,46" fill="#fcfdfd"/><rect x="253" y="23" width="23" height="23" fill="#77809f"/><polygon points="253,23 276,23 276,46" fill="#d2d5df"/><rect x="276" y="0" width="46" height="46" fill="#f1f2f5"/><path d="M 276 46 A 46 46 0 0 0 322 0 L 276 0L276 46" fill="#969db5"/><rect x="322" y="0" width="46" height="46" fill="#8990ac"/><path d="M 322 46 A 46 46 0 0 1  368 0 L 322 46 A 46 46 0 0 0 368 0" fill="#c2c6d4"/><rect x="368" y="0" width="46" height="46" fill="#ffffff"/><rect x="368" y="0" width="23" height="23" fill="#d1d4df"/><polygon points="391,0 391,23 368,23" fill="#f4f5f7"/><rect x="391" y="0" width="23" height="23" fill="#a2a8bd"/><polygon points="391,0 414,23 391,23" fill="#fefeff"/><rect x="368" y="23" width="23" height="23" fill="#8890ac"/><polygon points="368,23 391,23 368,46" fill="#cacdd9"/><rect x="391" y="23" width="23" height="23" fill="#5d688d"/><polygon points="391,23 414,23 414,46" fill="#59648a"/><rect x="414" y="0" width="46" height="46" fill="#ffffff"/><rect x="414" y="0" width="23" height="23" fill="#9097b1"/><path d="M 414 23 A 23 23 0 0 1  437 0 L 437 23L414 23" fill="#677194"/><rect x="437" y="0" width="23" height="23" fill="#d4d6e0"/><path d="M 437 0 A 23 23 0 0 1 460 23 L 437 23L437 0" fill="#d8dae3"/><rect x="414" y="23" width="23" height="23" fill="#8b93ae"/><path d="M 414 23 A 23 23 0 0 0 437 46 L 437 23L414 23" fill="#f1f2f5"/><rect x="437" y="23" width="23" height="23" fill="#cdd0dc"/><path d="M 437 46 A 23 23 0 0 0 460 23 L 437 23L437 46" fill="#cbcedb"/><rect x="460" y="0" width="46" height="46" fill="#ffffff"/><rect x="460" y="0" width="23" height="23" fill="#dbdde6"/><polygon points="483,0 483,23 460,23" fill="#8991ac"/><rect x="483" y="0" width="23" height="23" fill="#939ab3"/><polygon points="483,0 506,23 483,23" fill="#cdd0dc"/><rect x="460" y="23" width="23" height="23" fill="#f8f8fa"/><polygon points="460,23 483,23 483,46" fill="#5a658b"/><rect x="483" y="23" width="23" height="23" fill="#5a658b"/><polygon points="483,23 506,23 483,46" fill="#f4f5f7"/><rect x="506" y="0" width="46" height="46" fill="#ffffff"/><rect x="506" y="0" width="23" height="23" fill="#9299b3"/><polygon points="529,0 529,23 506,23" fill="#626c91"/><rect x="529" y="0" width="23" height="23" fill="#d9dbe4"/><polygon points="529,0 552,23 529,23" fill="#e2e4eb"/><rect x="506" y="23" width="23" height="23" fill="#aaafc3"/><polygon points="506,23 529,23 506,46" fill="#aab0c4"/><rect x="529" y="23" width="23" height="23" fill="#c4c8d5"/><polygon points="529,23 552,23 552,46" fill="#bcc0d0"/><rect x="0" y="46" width="46" height="46" fill="#ffffff"/><rect x="0" y="46" width="23" height="23" fill="#59638a"/><polygon points="23,46 23,69 0,69" fill="#edeff3"/><rect x="23" y="46" width="23" height="23" fill="#d0d3de"/><polygon points="23,46 46,69 23,69" fill="#7c84a3"/><rect x="0" y="69" width="23" height="23" fill="#606a8f"/><polygon points="0,69 23,69 23,92" fill="#e5e6ed"/><rect x="23" y="69" width="23" height="23" fill="#f2f3f6"/><polygon points="23,69 46,69 23,92" fill="#f8f8fa"/><rect x="46" y="46" width="46" height="46" fill="#ffffff"/><rect x="46" y="46" width="23" height="23" fill="#828aa7"/><path d="M 46 69 A 23 23 0 0 0 69 46 L 46 46L46 69" fill="#9ba2b9"/><rect x="69" y="46" width="23" height="23" fill="#cdd0dc"/><path d="M 69 46 A 23 23 0 0 0 92 69 L 92 46L69 46" fill="#f6f6f9"/><rect x="46" y="69" width="23" height="23" fill="#99a0b8"/><path d="M 46 69 A 23 23 0 0 1 69 92 L 46 92L46 69" fill="#757d9e"/><rect x="69" y="69" width="23" height="23" fill="#dddfe7"/><path d="M 69 92 A 23 23 0 0 1  92 69 L 92 92L69 92" fill="#c2c6d4"/><rect x="92" y="46" width="46" height="46" fill="#606b90"/><rect x="92" y="46" width="46" height="46" fill="#7c84a3"/><rect x="138" y="46" width="46" height="46" fill="#cfd2dd"/><rect x="138" y="46" width="46" height="46" fill="#7f87a5"/><rect x="184" y="46" width="46" height="46" fill="#ffffff"/><rect x="184" y="46" width="23" height="23" fill="#6d7799"/><path d="M 184 69 A 23 23 0 0 1  207 46 L 207 69L184 69" fill="#d4d7e1"/><rect x="207" y="46" width="23" height="23" fill="#e4e6ec"/><path d="M 207 46 A 23 23 0 0 1 230 69 L 207 69L207 46" fill="#848ca9"/><rect x="184" y="69" width="23" height="23" fill="#c4c8d6"/><path d="M 184 69 A 23 23 0 0 0 207 92 L 207 69L184 69" fill="#8f97b1"/><rect x="207" y="69" width="23" height="23" fill="#858daa"/><path d="M 207 92 A 23 23 0 0 0 230 69 L 207 69L207 92" fill="#e0e2e9"/><rect x="230" y="46" width="46" height="46" fill="#5d678d"/><path d="M 230 92 A 46 46 0 0 1  276 46 L 276 92L230 92" fill="#626c91"/><rect x="276" y="46" width="46" height="46" fill="#f4f5f7"/><path d="M 276 92 A 46 46 0 0 1  322 46 L 322 92L276 92" fill="#6f789a"/><rect x="322" y="46" width="46" height="46" fill="#767f9f"/><path d="M 322 46 A 46 46 0 0 1  368 92 L 322 46 A 46 46 0 0 0 368 92" fill="#8890ac"/><rect x="368" y="46" width="46" height="46" fill="#ffffff"/><rect x="368" y="46" width="23" height="23" fill="#d2d5df"/><path d="M 368 69 A 23 23 0 0 0 391 46 L 368 46L368 69" fill="#e6e7ed"/><rect x="391" y="46" width="23" height="23" fill="#8b93ae"/><path d="M 391 46 A 23 23 0 0 0 414 69 L 414 46L391 46" fill="#6e7799"/><rect x="368" y="69" width="23" height="23" fill="#cccfdb"/><path d="M 368 69 A 23 23 0 0 1 391 92 L 368 92L368 69" fill="#fbfbfc"/><rect x="391" y="69" width="23" height="23" fill="#dddfe7"/><path d="M 391 92 A 23 23 0 0 1  414 69 L 414 92L391 92" fill="#cbcfdb"/><rect x="414" y="46" width="46" height="46" fill="#dadce5"/><path d="M 414 92 A 46 46 0 0 1  460 46 L 460 92L414 92" fill="#adb3c6"/><rect x="460" y="46" width="46" height="46" fill="#99a0b8"/><rect x="460" y="46" width="46" height="46" fill="#bbbfcf"/><rect x="506" y="46" width="46" height="46" fill="#ffffff"/><rect x="506" y="46" width="23" height="23" fill="#aaafc3"/><path d="M 506 69 A 23 23 0 0 0 529 46 L 506 46L506 69" fill="#c0c4d3"/><rect x="529" y="46" width="23" height="23" fill="#989fb7"/><path d="M 529 46 A 23 23 0 0 0 552 69 L 552 46L529 46" fill="#9da4ba"/><rect x="506" y="69" width="23" height="23" fill="#f4f5f7"/><path d="M 506 69 A 23 23 0 0 1 529 92 L 506 92L506 69" fill="#8a92ad"/><rect x="529" y="69" width="23" height="23" fill="#dbdee6"/><path d="M 529 92 A 23 23 0 0 1  552 69 L 552 92L529 92" fill="#828aa7"/><rect x="0" y="92" width="46" height="46" fill="#ffffff"/><rect x="0" y="92" width="23" height="23" fill="#dadce5"/><polygon points="23,92 23,115 0,115" fill="#959cb5"/><rect x="23" y="92" width="23" height="23" fill="#fafafb"/><polygon points="23,92 46,92 23,115" fill="#dbdee6"/><rect x="0" y="115" width="23" height="23" fill="#f1f2f5"/><polygon points="0,115 23,115 23,138" fill="#aaafc3"/><rect x="23" y="115" width="23" height="23" fill="#70799b"/><polygon points="23,115 46,138 23,138" fill="#c3c7d5"/><rect x="46" y="92" width="46" height="46" fill="#9ea4bb"/><rect x="46" y="92" width="46" height="46" fill="#c5c8d6"/><rect x="92" y="92" width="46" height="46" fill="#ffffff"/><rect x="92" y="92" width="23" height="23" fill="#828aa7"/><polygon points="115,92 115,115 92,115" fill="#bcc1d0"/><rect x="115" y="92" width="23" height="23" fill="#697396"/><polygon points="115,92 138,92 115,115" fill="#dadde5"/><rect x="92" y="115" width="23" height="23" fill="#fcfdfd"/><polygon points="92,115 115,115 115,138" fill="#989fb7"/><rect x="115" y="115" width="23" height="23" fill="#e2e4ea"/><polygon points="115,115 138,138 115,138" fill="#f9f9fa"/><rect x="138" y="92" width="46" height="46" fill="#ffffff"/><rect x="138" y="92" width="23" height="23" fill="#f2f3f6"/><path d="M 138 115 A 23 23 0 0 1  161 92 L 161 115L138 115" fill="#edeef2"/><rect x="161" y="92" width="23" height="23" fill="#e6e7ed"/><path d="M 161 92 A 23 23 0 0 1 184 115 L 161 115L161 92" fill="#a3a9bf"/><rect x="138" y="115" width="23" height="23" fill="#bdc1d0"/><path d="M 138 115 A 23 23 0 0 0 161 138 L 161 115L138 115" fill="#7b84a2"/><rect x="161" y="115" width="23" height="23" fill="#687295"/><path d="M 161 138 A 23 23 0 0 0 184 115 L 161 115L161 138" fill="#8890ab"/><rect x="184" y="92" width="46" height="46" fill="#e7e8ee"/><polygon points="230,92 230,138 184,138" fill="#8990ac"/><rect x="230" y="92" width="46" height="46" fill="#8a91ad"/><path d="M 230 92 A 46 46 0 0 1 276 138 L 230 138L230 92" fill="#c9ccd9"/><rect x="276" y="92" width="46" height="46" fill="#ffffff"/><rect x="276" y="92" width="23" height="23" fill="#bec2d1"/><path d="M 276 115 A 23 23 0 0 1 299 92 L 299 97.75 A 17.25 17.25 0 0 0 281.75 115" fill="#acb2c5"/><rect x="299" y="92" width="23" height="23" fill="#f8f8fa"/><path d="M 299 92 A 23 23 0 0 1 322 115 L 316.25 115 A 17.25 17.25 0 0 0 299 97.75" fill="#b4b9ca"/><rect x="276" y="115" width="23" height="23" fill="#677094"/><path d="M 276 115 A 23 23 0 0 0 299 138 L 299 132.25 A 17.25 17.25 0 0 1 281.75 115" fill="#667094"/><rect x="299" y="115" width="23" height="23" fill="#687195"/><path d="M 299 138 A 23 23 0 0 0 322 115 L 316.25 115 A 17.25 17.25 0 0 1 299 132.25" fill="#e6e8ee"/><rect x="322" y="92" width="46" height="46" fill="#ffffff"/><rect x="322" y="92" width="23" height="23" fill="#c1c5d4"/><path d="M 322 115 A 23 23 0 0 0 345 92 L 322 92L322 115" fill="#c8ccd9"/><rect x="345" y="92" width="23" height="23" fill="#dbdde5"/><path d="M 345 92 A 23 23 0 0 0 368 115 L 368 92L345 92" fill="#878fab"/><rect x="322" y="115" width="23" height="23" fill="#dddfe7"/><path d="M 322 115 A 23 23 0 0 1 345 138 L 322 138L322 115" fill="#d8dae3"/><rect x="345" y="115" width="23" height="23" fill="#8a91ad"/><path d="M 345 138 A 23 23 0 0 1  368 115 L 368 138L345 138" fill="#c3c7d5"/><rect x="368" y="92" width="46" height="46" fill="#6f789a"/><path d="M 368 138 A 46 46 0 0 1  414 92 L 368 138 A 46 46 0 0 0 414 92" fill="#c0c4d3"/><rect x="414" y="92" width="46" height="46" fill="#e9eaf0"/><polygon points="414,92 460,92 460,138" fill="#fdfdfe"/><rect x="460" y="92" width="46" height="46" fill="#a5abc0"/><path d="M 460 138 A 46 46 0 0 1  506 92 L 460 138 A 46 46 0 0 0 506 92" fill="#556088"/><rect x="506" y="92" width="46" height="46" fill="#697396"/><polygon points="506,92 552,138 506,138" fill="#e2e4eb"/><rect x="0" y="138" width="46" height="46" fill="#ffffff"/><rect x="0" y="138" width="23" height="23" fill="#cbceda"/><path d="M 0 138 A 23 23 0 0 1 23 161 L 0 161L0 138" fill="#5f6a8f"/><rect x="23" y="138" width="23" height="23" fill="#e0e2e9"/><path d="M 23 161 A 23 23 0 0 1  46 138 L 46 161L23 161" fill="#f6f7f9"/><rect x="0" y="161" width="23" height="23" fill="#7881a0"/><path d="M 0 184 A 23 23 0 0 0 23 161 L 0 161L0 184" fill="#e0e2e9"/><rect x="23" y="161" width="23" height="23" fill="#697295"/><path d="M 23 161 A 23 23 0 0 0 46 184 L 46 161L23 161" fill="#8a91ad"/><rect x="46" y="138" width="46" height="46" fill="#9ea4bb"/><rect x="46" y="138" width="46" height="46" fill="#c0c4d3"/><rect x="92" y="138" width="46" height="46" fill="#ffffff"/><rect x="92" y="138" width="23" height="23" fill="#adb2c5"/><path d="M 92 161 A 23 23 0 0 1  115 138 L 115 161L92 161" fill="#58638a"/><rect x="115" y="138" width="23" height="23" fill="#aeb3c6"/><path d="M 115 138 A 23 23 0 0 1 138 161 L 115 161L115 138" fill="#bcc0d0"/><rect x="92" y="161" width="23" height="23" fill="#576289"/><path d="M 92 161 A 23 23 0 0 0 115 184 L 115 161L92 161" fill="#aab0c4"/><rect x="115" y="161" width="23" height="23" fill="#576289"/><path d="M 115 184 A 23 23 0 0 0 138 161 L 115 161L115 184" fill="#d1d4df"/><rect x="138" y="138" width="46" height="46" fill="#697396"/><path d="M 138 184 A 46 46 0 0 1  184 138 L 184 184L138 184" fill="#eeeff3"/><rect x="184" y="138" width="46" height="46" fill="#b1b6c8"/><path d="M 184 184 A 46 46 0 0 1  230 138 L 184 184 A 46 46 0 0 0 230 138" fill="#cdd1dc"/><rect x="230" y="138" width="46" height="46" fill="#ffffff"/><rect x="230" y="138" width="23" height="23" fill="#b2b7c9"/><polygon points="253,138 253,161 230,161" fill="#979eb6"/><rect x="253" y="138" width="23" height="23" fill="#6a7396"/><polygon points="253,138 276,138 253,161" fill="#c5c8d6"/><rect x="230" y="161" width="23" height="23" fill="#a9aec3"/><polygon points="230,161 253,161 253,184" fill="#c6cad7"/><rect x="253" y="161" width="23" height="23" fill="#d3d6e0"/><polygon points="253,161 276,184 253,184" fill="#5b668c"/><rect x="276" y="138" width="46" height="46" fill="#6a7496"/><path d="M 276 184 A 46 46 0 0 0 322 138 L 276 138L276 184" fill="#9299b2"/><rect x="322" y="138" width="46" height="46" fill="#ffffff"/><rect x="322" y="138" width="23" height="23" fill="#d2d5e0"/><path d="M 322 161 A 23 23 0 0 1 345 138 L 345 143.75 A 17.25 17.25 0 0 0 327.75 161" fill="#9198b2"/><rect x="345" y="138" width="23" height="23" fill="#566189"/><path d="M 345 138 A 23 23 0 0 1 368 161 L 362.25 161 A 17.25 17.25 0 0 0 345 143.75" fill="#cccfdb"/><rect x="322" y="161" width="23" height="23" fill="#7e87a5"/><path d="M 322 161 A 23 23 0 0 0 345 184 L 345 178.25 A 17.25 17.25 0 0 1 327.75 161" fill="#b3b8c9"/><rect x="345" y="161" width="23" height="23" fill="#9da3ba"/><path d="M 345 184 A 23 23 0 0 0 368 161 L 362.25 161 A 17.25 17.25 0 0 1 345 178.25" fill="#d8dae4"/><rect x="368" y="138" width="46" height="46" fill="#ffffff"/><rect x="368" y="138" width="23" height="23" fill="#8e95af"/><path d="M 368 138 A 23 23 0 0 1 391 161 L 368 161L368 138" fill="#868eaa"/><rect x="391" y="138" width="23" height="23" fill="#f9f9fb"/><path d="M 391 161 A 23 23 0 0 1  414 138 L 414 161L391 161" fill="#5a658b"/><rect x="368" y="161" width="23" height="23" fill="#e0e2e9"/><path d="M 368 184 A 23 23 0 0 0 391 161 L 368 161L368 184" fill="#838ba8"/><rect x="391" y="161" width="23" height="23" fill="#e8eaef"/><path d="M 391 161 A 23 23 0 0 0 414 184 L 414 161L391 161" fill="#babfcf"/><rect x="414" y="138" width="46" height="46" fill="#ffffff"/><rect x="414" y="138" width="23" height="23" fill="#e1e3ea"/><path d="M 414 161 A 23 23 0 0 1 437 138 L 437 143.75 A 17.25 17.25 0 0 0 419.75 161" fill="#6b7597"/><rect x="437" y="138" width="23" height="23" fill="#dee0e8"/><path d="M 437 138 A 23 23 0 0 1 460 161 L 454.25 161 A 17.25 17.25 0 0 0 437 143.75" fill="#f4f4f7"/><rect x="414" y="161" width="23" height="23" fill="#f3f3f6"/><path d="M 414 161 A 23 23 0 0 0 437 184 L 437 178.25 A 17.25 17.25 0 0 1 419.75 161" fill="#697396"/><rect x="437" y="161" width="23" height="23" fill="#d1d4de"/><path d="M 437 184 A 23 23 0 0 0 460 161 L 454.25 161 A 17.25 17.25 0 0 1 437 178.25" fill="#bbbfcf"/><rect x="460" y="138" width="46" height="46" fill="#626c91"/><rect x="460" y="138" width="46" height="46" fill="#9097b1"/><rect x="506" y="138" width="46" height="46" fill="#ffffff"/><rect x="506" y="138" width="23" height="23" fill="#a3a9bf"/><path d="M 506 161 A 23 23 0 0 0 529 138 L 506 138L506 161" fill="#8991ac"/><rect x="529" y="138" width="23" height="23" fill="#767f9f"/><path d="M 529 138 A 23 23 0 0 0 552 161 L 552 138L529 138" fill="#dee0e8"/><rect x="506" y="161" width="23" height="23" fill="#646e92"/><path d="M 506 161 A 23 23 0 0 1 529 184 L 506 184L506 161" fill="#9097b1"/><rect x="529" y="161" width="23" height="23" fill="#dee0e8"/><path d="M 529 184 A 23 23 0 0 1  552 161 L 552 184L529 184" fill="#5d678d"/><rect x="0" y="184" width="46" height="46" fill="#ffffff"/><rect x="0" y="184" width="23" height="23" fill="#aeb3c6"/><path d="M 0 184 A 23 23 0 0 0 23 207 L 23 184L0 184" fill="#7d85a4"/><rect x="23" y="184" width="23" height="23" fill="#626c91"/><path d="M 23 207 A 23 23 0 0 0 46 184 L 23 184L23 207" fill="#969db5"/><rect x="0" y="207" width="23" height="23" fill="#9ca2b9"/><path d="M 0 230 A 23 23 0 0 1  23 207 L 23 230L0 230" fill="#fafafc"/><rect x="23" y="207" width="23" height="23" fill="#6d7799"/><path d="M 23 207 A 23 23 0 0 1 46 230 L 23 230L23 207" fill="#a8aec2"/><rect x="46" y="184" width="46" height="46" fill="#ffffff"/><rect x="46" y="184" width="23" height="23" fill="#a4aabf"/><path d="M 46 207 A 23 23 0 0 0 69 184 L 46 184L46 207" fill="#c4c8d6"/><rect x="69" y="184" width="23" height="23" fill="#afb4c7"/><path d="M 69 184 A 23 23 0 0 0 92 207 L 92 184L69 184" fill="#c6cad7"/><rect x="46" y="207" width="23" height="23" fill="#dadce5"/><path d="M 46 207 A 23 23 0 0 1 69 230 L 46 230L46 207" fill="#677094"/><rect x="69" y="207" width="23" height="23" fill="#f9f9fb"/><path d="M 69 230 A 23 23 0 0 1  92 207 L 92 230L69 230" fill="#bcc1d0"/><rect x="92" y="184" width="46" height="46" fill="#ffffff"/><rect x="92" y="184" width="23" height="23" fill="#7982a1"/><path d="M 92 184 A 23 23 0 0 0 115 207 L 115 184L92 184" fill="#cccfdb"/><rect x="115" y="184" width="23" height="23" fill="#bdc1d0"/><path d="M 115 207 A 23 23 0 0 0 138 184 L 115 184L115 207" fill="#b6bbcc"/><rect x="92" y="207" width="23" height="23" fill="#e6e8ed"/><path d="M 92 230 A 23 23 0 0 1  115 207 L 115 230L92 230" fill="#ced1dd"/><rect x="115" y="207" width="23" height="23" fill="#acb2c5"/><path d="M 115 207 A 23 23 0 0 1 138 230 L 115 230L115 207" fill="#d8dbe4"/><rect x="138" y="184" width="46" height="46" fill="#cfd2dd"/><path d="M 138 184 A 46 46 0 0 1  184 230 L 138 184 A 46 46 0 0 0 184 230" fill="#727c9c"/><rect x="184" y="184" width="46" height="46" fill="#ffffff"/><rect x="184" y="184" width="23" height="23" fill="#7780a0"/><polygon points="207,184 207,207 184,207" fill="#d1d4df"/><rect x="207" y="184" width="23" height="23" fill="#e3e5ec"/><polygon points="207,184 230,207 207,207" fill="#bbbfcf"/><rect x="184" y="207" width="23" height="23" fill="#bbbfcf"/><polygon points="184,207 207,207 184,230" fill="#aeb3c6"/><rect x="207" y="207" width="23" height="23" fill="#dadce5"/><polygon points="207,207 230,207 230,230" fill="#b8bccd"/><rect x="230" y="184" width="46" height="46" fill="#ffffff"/><rect x="230" y="184" width="23" height="23" fill="#6e7799"/><polygon points="253,184 253,207 230,207" fill="#f5f6f8"/><rect x="253" y="184" width="23" height="23" fill="#767f9f"/><polygon points="253,184 276,207 253,207" fill="#979eb6"/><rect x="230" y="207" width="23" height="23" fill="#f9f9fb"/><polygon points="230,207 253,207 230,230" fill="#c8ccd8"/><rect x="253" y="207" width="23" height="23" fill="#e7e9ee"/><polygon points="253,207 276,207 276,230" fill="#7d85a4"/><rect x="276" y="184" width="46" height="46" fill="#ffffff"/><rect x="276" y="184" width="23" height="23" fill="#dfe1e9"/><path d="M 276 207 A 23 23 0 0 0 299 184 L 276 184L276 207" fill="#9299b3"/><rect x="299" y="184" width="23" height="23" fill="#b3b8c9"/><path d="M 299 184 A 23 23 0 0 0 322 207 L 322 184L299 184" fill="#5b658c"/><rect x="276" y="207" width="23" height="23" fill="#989fb7"/><path d="M 276 207 A 23 23 0 0 1 299 230 L 276 230L276 207" fill="#eaebf0"/><rect x="299" y="207" width="23" height="23" fill="#b5bacb"/><path d="M 299 230 A 23 23 0 0 1  322 207 L 322 230L299 230" fill="#e5e6ec"/><rect x="322" y="184" width="46" height="46" fill="#ffffff"/><rect x="322" y="184" width="23" height="23" fill="#6e7799"/><path d="M 322 207 A 23 23 0 0 1  345 184 L 345 207L322 207" fill="#8e95b0"/><rect x="345" y="184" width="23" height="23" fill="#e3e5eb"/><path d="M 345 184 A 23 23 0 0 1 368 207 L 345 207L345 184" fill="#9ea4bb"/><rect x="322" y="207" width="23" height="23" fill="#878eab"/><path d="M 322 207 A 23 23 0 0 0 345 230 L 345 207L322 207" fill="#a7adc1"/><rect x="345" y="207" width="23" height="23" fill="#939ab3"/><path d="M 345 230 A 23 23 0 0 0 368 207 L 345 207L345 230" fill="#dfe1e9"/><rect x="368" y="184" width="46" height="46" fill="#8d95af"/><rect x="368" y="184" width="46" height="46" fill="#abb0c4"/><rect x="414" y="184" width="46" height="46" fill="#e8e9ef"/><path d="M 414 230 A 46 46 0 0 1  460 184 L 414 230 A 46 46 0 0 0 460 184" fill="#f0f1f4"/><rect x="460" y="184" width="46" height="46" fill="#757e9e"/><polygon points="506,184 506,230 460,230" fill="#9198b2"/><rect x="506" y="184" width="46" height="46" fill="#8189a6"/><rect x="506" y="184" width="46" height="46" fill="#767f9f"/><rect x="0" y="230" width="46" height="46" fill="#ffffff"/><rect x="0" y="230" width="23" height="23" fill="#576189"/><circle cx="11.5" cy="241.5" r="11.5" fill="#ecedf1"/><rect x="23" y="230" width="23" height="23" fill="#949bb4"/><rect x="23" y="230" width="23" height="23" fill="#f0f1f4"/><rect x="0" y="253" width="23" height="23" fill="#747d9e"/><circle cx="11.5" cy="264.5" r="11.5" fill="#8991ac"/><rect x="23" y="253" width="23" height="23" fill="#f8f8fa"/><rect x="23" y="253" width="23" height="23" fill="#b1b6c8"/><rect x="46" y="230" width="46" height="46" fill="#ffffff"/><rect x="46" y="230" width="23" height="23" fill="#9da3ba"/><polygon points="69,230 69,253 46,253" fill="#7f87a5"/><rect x="69" y="230" width="23" height="23" fill="#b4b9ca"/><polygon points="69,230 92,253 69,253" fill="#f6f7f9"/><rect x="46" y="253" width="23" height="23" fill="#eaebf0"/><polygon points="46,253 69,253 46,276" fill="#d0d3de"/><rect x="69" y="253" width="23" height="23" fill="#626c91"/><polygon points="69,253 92,253 92,276" fill="#747d9e"/><rect x="92" y="230" width="46" height="46" fill="#ffffff"/><rect x="92" y="230" width="23" height="23" fill="#576289"/><circle cx="103.5" cy="241.5" r="11.5" fill="#b7bccd"/><rect x="115" y="230" width="23" height="23" fill="#ced2dd"/><rect x="115" y="230" width="23" height="23" fill="#59638a"/><rect x="92" y="253" width="23" height="23" fill="#848ca9"/><circle cx="103.5" cy="264.5" r="11.5" fill="#d0d3de"/><rect x="115" y="253" width="23" height="23" fill="#e3e5ec"/><rect x="115" y="253" width="23" height="23" fill="#f6f6f9"/><rect x="138" y="230" width="46" height="46" fill="#ffffff"/><rect x="138" y="230" width="23" height="23" fill="#545f87"/><path d="M 138 253 A 23 23 0 0 1 161 230 L 161 235.75 A 17.25 17.25 0 0 0 143.75 253" fill="#e7e9ee"/><rect x="161" y="230" width="23" height="23" fill="#c5c9d6"/><path d="M 161 230 A 23 23 0 0 1 184 253 L 178.25 253 A 17.25 17.25 0 0 0 161 235.75" fill="#8890ac"/><rect x="138" y="253" width="23" height="23" fill="#f3f3f6"/><path d="M 138 253 A 23 23 0 0 0 161 276 L 161 270.25 A 17.25 17.25 0 0 1 143.75 253" fill="#b7bccd"/><rect x="161" y="253" width="23" height="23" fill="#5e688e"/><path d="M 161 276 A 23 23 0 0 0 184 253 L 178.25 253 A 17.25 17.25 0 0 1 161 270.25" fill="#dee0e8"/><rect x="184" y="230" width="46" height="46" fill="#7c85a3"/><path d="M 184 230 A 46 46 0 0 1 230 276 L 184 276L184 230" fill="#6e7799"/><rect x="230" y="230" width="46" height="46" fill="#f5f6f8"/><polygon points="230,230 276,230 230,276" fill="#868daa"/><rect x="276" y="230" width="46" height="46" fill="#ffffff"/><rect x="276" y="230" width="23" height="23" fill="#cfd2dd"/><path d="M 276 230 A 23 23 0 0 0 299 253 L 299 230L276 230" fill="#878fab"/><rect x="299" y="230" width="23" height="23" fill="#7a83a2"/><path d="M 299 253 A 23 23 0 0 0 322 230 L 299 230L299 253" fill="#99a0b7"/><rect x="276" y="253" width="23" height="23" fill="#a1a7bd"/><path d="M 276 276 A 23 23 0 0 1  299 253 L 299 276L276 276" fill="#cacdda"/><rect x="299" y="253" width="23" height="23" fill="#6f799a"/><path d="M 299 253 A 23 23 0 0 1 322 276 L 299 276L299 253" fill="#f3f4f7"/><rect x="322" y="230" width="46" height="46" fill="#edeef2"/><rect x="322" y="230" width="46" height="46" fill="#747d9e"/><rect x="368" y="230" width="46" height="46" fill="#a7adc1"/><rect x="368" y="230" width="46" height="46" fill="#cbcfdb"/><rect x="414" y="230" width="46" height="46" fill="#ffffff"/><rect x="414" y="230" width="23" height="23" fill="#eceef2"/><polygon points="437,230 437,253 414,253" fill="#aab0c4"/><rect x="437" y="230" width="23" height="23" fill="#a3a9be"/><polygon points="437,230 460,253 437,253" fill="#e9eaef"/><rect x="414" y="253" width="23" height="23" fill="#d2d5e0"/><polygon points="414,253 437,253 414,276" fill="#f7f8f9"/><rect x="437" y="253" width="23" height="23" fill="#bbbfcf"/><polygon points="437,253 460,253 460,276" fill="#70799a"/><rect x="460" y="230" width="46" height="46" fill="#ffffff"/><rect x="460" y="230" width="23" height="23" fill="#616b90"/><path d="M 460 253 A 23 23 0 0 1  483 230 L 483 253L460 253" fill="#d9dbe4"/><rect x="483" y="230" width="23" height="23" fill="#7f87a5"/><path d="M 483 230 A 23 23 0 0 1 506 253 L 483 253L483 230" fill="#e4e6ec"/><rect x="460" y="253" width="23" height="23" fill="#727b9c"/><path d="M 460 253 A 23 23 0 0 0 483 276 L 483 253L460 253" fill="#979db6"/><rect x="483" y="253" width="23" height="23" fill="#868daa"/><path d="M 483 276 A 23 23 0 0 0 506 253 L 483 253L483 276" fill="#545f87"/><rect x="506" y="230" width="46" height="46" fill="#ffffff"/><rect x="506" y="230" width="23" height="23" fill="#979eb6"/><polygon points="529,230 529,253 506,253" fill="#848ca8"/><rect x="529" y="230" width="23" height="23" fill="#bcc1d0"/><polygon points="529,230 552,253 529,253" fill="#f7f7f9"/><rect x="506" y="253" width="23" height="23" fill="#8e95b0"/><polygon points="506,253 529,253 529,276" fill="#c8ccd9"/><rect x="529" y="253" width="23" height="23" fill="#acb1c4"/><polygon points="529,253 552,253 529,276" fill="#7d85a3"/><rect x="0" y="276" width="46" height="46" fill="#c9ccd9"/><polygon points="0,276 46,276 0,322" fill="#a2a8be"/><rect x="46" y="276" width="46" height="46" fill="#818aa7"/><rect x="46" y="276" width="46" height="46" fill="#717a9b"/><rect x="92" y="276" width="46" height="46" fill="#777f9f"/><path d="M 92 322 A 46 46 0 0 0 138 276 L 92 276L92 322" fill="#5d678d"/><rect x="138" y="276" width="46" height="46" fill="#bbbfcf"/><path d="M 138 322 A 46 46 0 0 1  184 276 L 138 322 A 46 46 0 0 0 184 276" fill="#cdd0dc"/><rect x="184" y="276" width="46" height="46" fill="#f5f6f8"/><rect x="184" y="276" width="46" height="46" fill="#e2e4eb"/><rect x="230" y="276" width="46" height="46" fill="#ffffff"/><rect x="230" y="276" width="23" height="23" fill="#c3c7d5"/><polygon points="253,276 253,299 230,299" fill="#5a648b"/><rect x="253" y="276" width="23" height="23" fill="#5c668c"/><polygon points="253,276 276,299 253,299" fill="#9fa5bb"/><rect x="230" y="299" width="23" height="23" fill="#9ca2b9"/><polygon points="230,299 253,299 230,322" fill="#dbdee6"/><rect x="253" y="299" width="23" height="23" fill="#f1f1f5"/><polygon points="253,299 276,299 276,322" fill="#bfc3d2"/><rect x="276" y="276" width="46" height="46" fill="#ffffff"/><rect x="276" y="276" width="23" height="23" fill="#ffffff"/><path d="M 276 276 A 23 23 0 0 1 299 299 L 276 299L276 276" fill="#58638a"/><rect x="299" y="276" width="23" height="23" fill="#c5c9d6"/><path d="M 299 299 A 23 23 0 0 1  322 276 L 322 299L299 299" fill="#c0c5d3"/><rect x="276" y="299" width="23" height="23" fill="#f0f1f5"/><path d="M 276 322 A 23 23 0 0 0 299 299 L 276 299L276 322" fill="#878fab"/><rect x="299" y="299" width="23" height="23" fill="#e4e5ec"/><path d="M 299 299 A 23 23 0 0 0 322 322 L 322 299L299 299" fill="#9ca2ba"/><rect x="322" y="276" width="46" height="46" fill="#7a83a2"/><polygon points="322,276 368,276 322,322" fill="#606a8f"/><rect x="368" y="276" width="46" height="46" fill="#ffffff"/><rect x="368" y="276" width="23" height="23" fill="#e3e4eb"/><path d="M 368 299 A 23 23 0 0 1  391 276 L 391 299L368 299" fill="#7982a1"/><rect x="391" y="276" width="23" height="23" fill="#e3e4eb"/><path d="M 391 276 A 23 23 0 0 1 414 299 L 391 299L391 276" fill="#c5c8d6"/><rect x="368" y="299" width="23" height="23" fill="#5f698e"/><path d="M 368 299 A 23 23 0 0 0 391 322 L 391 299L368 299" fill="#c3c7d5"/><rect x="391" y="299" width="23" height="23" fill="#d3d6e0"/><path d="M 391 322 A 23 23 0 0 0 414 299 L 391 299L391 322" fill="#7c84a3"/><rect x="414" y="276" width="46" height="46" fill="#ffffff"/><rect x="414" y="276" width="23" height="23" fill="#5a658b"/><path d="M 414 299 A 23 23 0 0 0 437 276 L 414 276L414 299" fill="#e8e9ef"/><rect x="437" y="276" width="23" height="23" fill="#e4e6ec"/><path d="M 437 276 A 23 23 0 0 0 460 299 L 460 276L437 276" fill="#adb2c5"/><rect x="414" y="299" width="23" height="23" fill="#a7acc1"/><path d="M 414 299 A 23 23 0 0 1 437 322 L 414 322L414 299" fill="#e5e7ed"/><rect x="437" y="299" width="23" height="23" fill="#9ca3ba"/><path d="M 437 322 A 23 23 0 0 1  460 299 L 460 322L437 322" fill="#a0a6bc"/><rect x="460" y="276" width="46" height="46" fill="#959bb4"/><rect x="460" y="276" width="46" height="46" fill="#b3b7c9"/><rect x="506" y="276" width="46" height="46" fill="#ffffff"/><rect x="506" y="276" width="23" height="23" fill="#ebecf1"/><path d="M 506 276 A 23 23 0 0 0 529 299 L 529 276L506 276" fill="#d3d6e0"/><rect x="529" y="276" width="23" height="23" fill="#afb4c7"/><path d="M 529 299 A 23 23 0 0 0 552 276 L 529 276L529 299" fill="#6a7497"/><rect x="506" y="299" width="23" height="23" fill="#606a90"/><path d="M 506 322 A 23 23 0 0 1  529 299 L 529 322L506 322" fill="#9ba2b9"/><rect x="529" y="299" width="23" height="23" fill="#e1e3ea"/><path d="M 529 299 A 23 23 0 0 1 552 322 L 529 322L529 299" fill="#6a7396"/><rect x="0" y="322" width="46" height="46" fill="#697396"/><rect x="0" y="322" width="46" height="46" fill="#ced1dc"/><rect x="46" y="322" width="46" height="46" fill="#7d86a4"/><polygon points="46,322 92,368 46,368" fill="#b7bccd"/><rect x="92" y="322" width="46" height="46" fill="#a9afc3"/><path d="M 92 322 A 46 46 0 0 1 138 368 L 92 368L92 322" fill="#f9f9fb"/><rect x="138" y="322" width="46" height="46" fill="#bcc0d0"/><rect x="138" y="322" width="46" height="46" fill="#7e86a5"/><rect x="184" y="322" width="46" height="46" fill="#f6f7f9"/><polygon points="184,322 230,322 230,368" fill="#7780a0"/><rect x="230" y="322" width="46" height="46" fill="#ffffff"/><rect x="230" y="322" width="23" height="23" fill="#c3c7d5"/><path d="M 230 345 A 23 23 0 0 0 253 322 L 230 322L230 345" fill="#c6c9d7"/><rect x="253" y="322" width="23" height="23" fill="#fcfcfd"/><path d="M 253 322 A 23 23 0 0 0 276 345 L 276 322L253 322" fill="#cdd0dc"/><rect x="230" y="345" width="23" height="23" fill="#b3b8c9"/><path d="M 230 345 A 23 23 0 0 1 253 368 L 230 368L230 345" fill="#d4d6e1"/><rect x="253" y="345" width="23" height="23" fill="#e8e9ef"/><path d="M 253 368 A 23 23 0 0 1  276 345 L 276 368L253 368" fill="#c8cbd8"/><rect x="276" y="322" width="46" height="46" fill="#ffffff"/><rect x="276" y="322" width="23" height="23" fill="#8a92ad"/><circle cx="287.5" cy="333.5" r="11.5" fill="#f8f8fa"/><rect x="299" y="322" width="23" height="23" fill="#d9dce5"/><rect x="299" y="322" width="23" height="23" fill="#697396"/><rect x="276" y="345" width="23" height="23" fill="#cbcfdb"/><circle cx="287.5" cy="356.5" r="11.5" fill="#a1a7bd"/><rect x="299" y="345" width="23" height="23" fill="#bbc0cf"/><rect x="299" y="345" width="23" height="23" fill="#c9cdd9"/><rect x="322" y="322" width="46" height="46" fill="#afb4c7"/><path d="M 322 368 A 46 46 0 0 1  368 322 L 322 368 A 46 46 0 0 0 368 322" fill="#757e9e"/><rect x="368" y="322" width="46" height="46" fill="#b9bdce"/><rect x="368" y="322" width="46" height="46" fill="#acb1c5"/><rect x="414" y="322" width="46" height="46" fill="#58638a"/><rect x="414" y="322" width="46" height="46" fill="#fafafb"/><rect x="460" y="322" width="46" height="46" fill="#5d688e"/><polygon points="506,322 506,368 460,368" fill="#d4d7e1"/><rect x="506" y="322" width="46" height="46" fill="#7e86a4"/><rect x="506" y="322" width="46" height="46" fill="#dee0e8"/><rect x="0" y="368" width="46" height="46" fill="#f2f3f6"/><polygon points="0,368 46,368 0,414" fill="#f6f7f9"/><rect x="46" y="368" width="46" height="46" fill="#ffffff"/><rect x="46" y="368" width="23" height="23" fill="#dbdde6"/><polygon points="69,368 69,391 46,391" fill="#727b9c"/><rect x="69" y="368" width="23" height="23" fill="#eff0f4"/><polygon points="69,368 92,391 69,391" fill="#818aa7"/><rect x="46" y="391" width="23" height="23" fill="#babece"/><polygon points="46,391 69,391 69,414" fill="#616c90"/><rect x="69" y="391" width="23" height="23" fill="#fefefe"/><polygon points="69,391 92,391 69,414" fill="#9299b3"/><rect x="92" y="368" width="46" height="46" fill="#ffffff"/><rect x="92" y="368" width="23" height="23" fill="#e5e7ed"/><polygon points="115,368 115,391 92,391" fill="#858da9"/><rect x="115" y="368" width="23" height="23" fill="#c2c6d4"/><polygon points="115,368 138,391 115,391" fill="#6a7396"/><rect x="92" y="391" width="23" height="23" fill="#e7e8ee"/><polygon points="92,391 115,391 92,414" fill="#999fb7"/><rect x="115" y="391" width="23" height="23" fill="#556088"/><polygon points="115,391 138,391 138,414" fill="#bfc3d2"/><rect x="138" y="368" width="46" height="46" fill="#ffffff"/><rect x="138" y="368" width="23" height="23" fill="#d1d4de"/><polygon points="161,368 161,391 138,391" fill="#f7f7f9"/><rect x="161" y="368" width="23" height="23" fill="#eaecf0"/><polygon points="161,368 184,368 161,391" fill="#b2b7c9"/><rect x="138" y="391" width="23" height="23" fill="#eff0f4"/><polygon points="138,391 161,391 161,414" fill="#8a91ad"/><rect x="161" y="391" width="23" height="23" fill="#858da9"/><polygon points="161,391 184,414 161,414" fill="#5f698e"/><rect x="184" y="368" width="46" height="46" fill="#ffffff"/><rect x="184" y="368" width="23" height="23" fill="#59648a"/><polygon points="207,368 207,391 184,391" fill="#77809f"/><rect x="207" y="368" width="23" height="23" fill="#ebecf1"/><polygon points="207,368 230,368 207,391" fill="#9ba1b9"/><rect x="184" y="391" width="23" height="23" fill="#757e9e"/><polygon points="184,391 207,391 207,414" fill="#d7d9e3"/><rect x="207" y="391" width="23" height="23" fill="#9ba1b9"/><polygon points="207,391 230,414 207,414" fill="#9299b3"/><rect x="230" y="368" width="46" height="46" fill="#ffffff"/><rect x="230" y="368" width="23" height="23" fill="#9198b2"/><polygon points="253,368 253,391 230,391" fill="#939ab3"/><rect x="253" y="368" width="23" height="23" fill="#9ba2b9"/><polygon points="253,368 276,368 253,391" fill="#caceda"/><rect x="230" y="391" width="23" height="23" fill="#6d7799"/><polygon points="230,391 253,391 253,414" fill="#e7e8ee"/><rect x="253" y="391" width="23" height="23" fill="#757e9e"/><polygon points="253,391 276,414 253,414" fill="#eaebf0"/><rect x="276" y="368" width="46" height="46" fill="#ffffff"/><rect x="276" y="368" width="23" height="23" fill="#a4aabf"/><polygon points="299,368 299,391 276,391" fill="#8e95b0"/><rect x="299" y="368" width="23" height="23" fill="#737c9d"/><polygon points="299,368 322,391 299,391" fill="#b4b9ca"/><rect x="276" y="391" width="23" height="23" fill="#bdc1d0"/><polygon points="276,391 299,391 299,414" fill="#576189"/><rect x="299" y="391" width="23" height="23" fill="#5c678d"/><polygon points="299,391 322,391 299,414" fill="#f7f7f9"/><rect x="322" y="368" width="46" height="46" fill="#757e9e"/><rect x="322" y="368" width="46" height="46" fill="#5e698e"/><rect x="368" y="368" width="46" height="46" fill="#727b9c"/><polygon points="368,368 414,368 368,414" fill="#717a9b"/><rect x="414" y="368" width="46" height="46" fill="#ffffff"/><rect x="414" y="368" width="23" height="23" fill="#c5c9d7"/><polygon points="437,368 437,391 414,391" fill="#eff0f4"/><rect x="437" y="368" width="23" height="23" fill="#556088"/><polygon points="437,368 460,391 437,391" fill="#969db5"/><rect x="414" y="391" width="23" height="23" fill="#838ba8"/><polygon points="414,391 437,391 414,414" fill="#7d85a4"/><rect x="437" y="391" width="23" height="23" fill="#d5d8e1"/><polygon points="437,391 460,391 460,414" fill="#838ba8"/><rect x="460" y="368" width="46" height="46" fill="#ffffff"/><rect x="460" y="368" width="23" height="23" fill="#58638a"/><path d="M 460 391 A 23 23 0 0 1 483 368 L 483 373.75 A 17.25 17.25 0 0 0 465.75 391" fill="#616c90"/><rect x="483" y="368" width="23" height="23" fill="#7780a0"/><path d="M 483 368 A 23 23 0 0 1 506 391 L 500.25 391 A 17.25 17.25 0 0 0 483 373.75" fill="#d9dce4"/><rect x="460" y="391" width="23" height="23" fill="#687295"/><path d="M 460 391 A 23 23 0 0 0 483 414 L 483 408.25 A 17.25 17.25 0 0 1 465.75 391" fill="#f3f3f6"/><rect x="483" y="391" width="23" height="23" fill="#677194"/><path d="M 483 414 A 23 23 0 0 0 506 391 L 500.25 391 A 17.25 17.25 0 0 1 483 408.25" fill="#646e92"/><rect x="506" y="368" width="46" height="46" fill="#ffffff"/><rect x="506" y="368" width="23" height="23" fill="#8189a7"/><polygon points="529,368 529,391 506,391" fill="#d6d9e2"/><rect x="529" y="368" width="23" height="23" fill="#9fa5bb"/><polygon points="529,368 552,368 529,391" fill="#d3d6e0"/><rect x="506" y="391" width="23" height="23" fill="#afb4c7"/><polygon points="506,391 529,391 529,414" fill="#dbdde6"/><rect x="529" y="391" width="23" height="23" fill="#6e7799"/><polygon points="529,391 552,414 529,414" fill="#cccfdb"/><rect x="0" y="414" width="46" height="46" fill="#ffffff"/><rect x="0" y="414" width="23" height="23" fill="#e2e4eb"/><path d="M 0 414 A 23 23 0 0 1 23 437 L 0 437L0 414" fill="#8890ac"/><rect x="23" y="414" width="23" height="23" fill="#c5c8d6"/><path d="M 23 437 A 23 23 0 0 1  46 414 L 46 437L23 437" fill="#8189a7"/><rect x="0" y="437" width="23" height="23" fill="#6e7799"/><path d="M 0 460 A 23 23 0 0 0 23 437 L 0 437L0 460" fill="#6c7598"/><rect x="23" y="437" width="23" height="23" fill="#fdfdfd"/><path d="M 23 437 A 23 23 0 0 0 46 460 L 46 437L23 437" fill="#777f9f"/><rect x="46" y="414" width="46" height="46" fill="#c7cbd8"/><path d="M 46 414 A 46 46 0 0 1  92 460 L 46 414 A 46 46 0 0 0 92 460" fill="#eff0f4"/><rect x="92" y="414" width="46" height="46" fill="#ffffff"/><rect x="92" y="414" width="23" height="23" fill="#7c84a3"/><path d="M 92 437 A 23 23 0 0 0 115 414 L 92 414L92 437" fill="#7981a1"/><rect x="115" y="414" width="23" height="23" fill="#dee0e8"/><path d="M 115 414 A 23 23 0 0 0 138 437 L 138 414L115 414" fill="#646e92"/><rect x="92" y="437" width="23" height="23" fill="#f5f5f8"/><path d="M 92 437 A 23 23 0 0 1 115 460 L 92 460L92 437" fill="#9da3ba"/><rect x="115" y="437" width="23" height="23" fill="#d4d7e1"/><path d="M 115 460 A 23 23 0 0 1  138 437 L 138 460L115 460" fill="#b0b5c7"/><rect x="138" y="414" width="46" height="46" fill="#656f93"/><path d="M 138 414 A 46 46 0 0 1 184 460 L 138 460L138 414" fill="#d4d7e1"/><rect x="184" y="414" width="46" height="46" fill="#9da3ba"/><polygon points="184,414 230,414 230,460" fill="#9299b2"/><rect x="230" y="414" width="46" height="46" fill="#ffffff"/><rect x="230" y="414" width="23" height="23" fill="#6f789a"/><polygon points="253,414 253,437 230,437" fill="#eeeff3"/><rect x="253" y="414" width="23" height="23" fill="#9aa1b8"/><polygon points="253,414 276,414 253,437" fill="#858daa"/><rect x="230" y="437" width="23" height="23" fill="#838ba8"/><polygon points="230,437 253,437 253,460" fill="#e7e9ee"/><rect x="253" y="437" width="23" height="23" fill="#7b83a2"/><polygon points="253,437 276,460 253,460" fill="#7f88a5"/><rect x="276" y="414" width="46" height="46" fill="#7d85a4"/><path d="M 276 460 A 46 46 0 0 1  322 414 L 322 460L276 460" fill="#dddfe7"/><rect x="322" y="414" width="46" height="46" fill="#ffffff"/><rect x="322" y="414" width="23" height="23" fill="#e9eaf0"/><polygon points="345,414 345,437 322,437" fill="#f6f7f9"/><rect x="345" y="414" width="23" height="23" fill="#636d92"/><polygon points="345,414 368,437 345,437" fill="#697396"/><rect x="322" y="437" width="23" height="23" fill="#8e95b0"/><polygon points="322,437 345,437 345,460" fill="#b5bacb"/><rect x="345" y="437" width="23" height="23" fill="#dadde5"/><polygon points="345,437 368,437 345,460" fill="#989eb7"/><rect x="368" y="414" width="46" height="46" fill="#ffffff"/><rect x="368" y="414" width="23" height="23" fill="#99a0b8"/><circle cx="379.5" cy="425.5" r="11.5" fill="#556087"/><rect x="391" y="414" width="23" height="23" fill="#697295"/><rect x="391" y="414" width="23" height="23" fill="#7f87a5"/><rect x="368" y="437" width="23" height="23" fill="#6b7597"/><circle cx="379.5" cy="448.5" r="11.5" fill="#b7bccd"/><rect x="391" y="437" width="23" height="23" fill="#9097b1"/><rect x="391" y="437" width="23" height="23" fill="#566188"/><rect x="414" y="414" width="46" height="46" fill="#b8bccd"/><path d="M 414 460 A 46 46 0 0 1  460 414 L 460 460L414 460" fill="#abb0c4"/><rect x="460" y="414" width="46" height="46" fill="#bcc0d0"/><path d="M 460 414 A 46 46 0 0 1 506 460 L 460 460L460 414" fill="#646e92"/><rect x="506" y="414" width="46" height="46" fill="#f6f6f9"/><path d="M 506 460 A 46 46 0 0 1  552 414 L 552 460L506 460" fill="#757d9e"/><rect x="0" y="460" width="46" height="46" fill="#ffffff"/><rect x="0" y="460" width="23" height="23" fill="#afb4c7"/><path d="M 0 460 A 23 23 0 0 1 23 483 L 0 483L0 460" fill="#8890ac"/><rect x="23" y="460" width="23" height="23" fill="#9198b2"/><path d="M 23 483 A 23 23 0 0 1  46 460 L 46 483L23 483" fill="#cacdda"/><rect x="0" y="483" width="23" height="23" fill="#cbcfdb"/><path d="M 0 506 A 23 23 0 0 0 23 483 L 0 483L0 506" fill="#667094"/><rect x="23" y="483" width="23" height="23" fill="#cdd0dc"/><path d="M 23 483 A 23 23 0 0 0 46 506 L 46 483L23 483" fill="#757e9e"/><rect x="46" y="460" width="46" height="46" fill="#b6bbcc"/><polygon points="46,460 92,460 46,506" fill="#8c93ae"/><rect x="92" y="460" width="46" height="46" fill="#ffffff"/><rect x="92" y="460" width="23" height="23" fill="#8f96b0"/><circle cx="103.5" cy="471.5" r="11.5" fill="#9da3ba"/><rect x="115" y="460" width="23" height="23" fill="#bfc3d2"/><rect x="115" y="460" width="23" height="23" fill="#f9f9fa"/><rect x="92" y="483" width="23" height="23" fill="#afb4c7"/><circle cx="103.5" cy="494.5" r="11.5" fill="#acb2c5"/><rect x="115" y="483" width="23" height="23" fill="#5b668c"/><rect x="115" y="483" width="23" height="23" fill="#c3c7d5"/><rect x="138" y="460" width="46" height="46" fill="#ffffff"/><rect x="138" y="460" width="23" height="23" fill="#7780a0"/><path d="M 138 460 A 23 23 0 0 1 161 483 L 138 483L138 460" fill="#7f87a5"/><rect x="161" y="460" width="23" height="23" fill="#f5f5f8"/><path d="M 161 483 A 23 23 0 0 1  184 460 L 184 483L161 483" fill="#5b668c"/><rect x="138" y="483" width="23" height="23" fill="#d1d4df"/><path d="M 138 506 A 23 23 0 0 0 161 483 L 138 483L138 506" fill="#6a7497"/><rect x="161" y="483" width="23" height="23" fill="#fcfcfd"/><path d="M 161 483 A 23 23 0 0 0 184 506 L 184 483L161 483" fill="#667094"/><rect x="184" y="460" width="46" height="46" fill="#878fab"/><polygon points="184,460 230,460 184,506" fill="#9ea5bb"/><rect x="230" y="460" width="46" height="46" fill="#ffffff"/><rect x="230" y="460" width="23" height="23" fill="#9299b3"/><polygon points="253,460 253,483 230,483" fill="#bdc1d1"/><rect x="253" y="460" width="23" height="23" fill="#b3b8ca"/><polygon points="253,460 276,460 253,483" fill="#a8aec2"/><rect x="230" y="483" width="23" height="23" fill="#c3c7d5"/><polygon points="230,483 253,483 253,506" fill="#636d92"/><rect x="253" y="483" width="23" height="23" fill="#bdc2d1"/><polygon points="253,483 276,506 253,506" fill="#979eb6"/><rect x="276" y="460" width="46" height="46" fill="#f8f9fa"/><path d="M 276 460 A 46 46 0 0 0 322 506 L 322 460L276 460" fill="#878eab"/><rect x="322" y="460" width="46" height="46" fill="#556088"/><rect x="322" y="460" width="46" height="46" fill="#566188"/><rect x="368" y="460" width="46" height="46" fill="#ffffff"/><rect x="368" y="460" width="23" height="23" fill="#d1d4df"/><path d="M 368 483 A 23 23 0 0 1  391 460 L 391 483L368 483" fill="#fbfbfc"/><rect x="391" y="460" width="23" height="23" fill="#5d678d"/><path d="M 391 460 A 23 23 0 0 1 414 483 L 391 483L391 460" fill="#959cb5"/><rect x="368" y="483" width="23" height="23" fill="#bec2d1"/><path d="M 368 483 A 23 23 0 0 0 391 506 L 391 483L368 483" fill="#e2e4eb"/><rect x="391" y="483" width="23" height="23" fill="#677195"/><path d="M 391 506 A 23 23 0 0 0 414 483 L 391 483L391 506" fill="#d3d6e0"/><rect x="414" y="460" width="46" height="46" fill="#dadde5"/><polygon points="460,460 460,506 414,506" fill="#c4c8d6"/><rect x="460" y="460" width="46" height="46" fill="#ffffff"/><rect x="460" y="460" width="23" height="23" fill="#9da3ba"/><path d="M 460 460 A 23 23 0 0 0 483 483 L 483 460L460 460" fill="#f0f1f4"/><rect x="483" y="460" width="23" height="23" fill="#7981a1"/><path d="M 483 483 A 23 23 0 0 0 506 460 L 483 460L483 483" fill="#747d9d"/><rect x="460" y="483" width="23" height="23" fill="#e5e7ed"/><path d="M 460 506 A 23 23 0 0 1  483 483 L 483 506L460 506" fill="#969db6"/><rect x="483" y="483" width="23" height="23" fill="#556088"/><path d="M 483 483 A 23 23 0 0 1 506 506 L 483 506L483 483" fill="#e2e4eb"/><rect x="506" y="460" width="46" height="46" fill="#ffffff"/><rect x="506" y="460" width="23" height="23" fill="#a1a7bd"/><path d="M 506 483 A 23 23 0 0 1  529 460 L 529 483L506 483" fill="#8a92ad"/><rect x="529" y="460" width="23" height="23" fill="#f3f4f7"/><path d="M 529 460 A 23 23 0 0 1 552 483 L 529 483L529 460" fill="#bcc0d0"/><rect x="506" y="483" width="23" height="23" fill="#eeeff3"/><path d="M 506 483 A 23 23 0 0 0 529 506 L 529 483L506 483" fill="#59648b"/><rect x="529" y="483" width="23" height="23" fill="#babece"/><path d="M 529 506 A 23 23 0 0 0 552 483 L 529 483L529 506" fill="#7d85a4"/></g></svg>