<?xml version="1.0" standalone="no"?><svg xmlns:xlink="http://www.w3.org/1999/xlink" xmlns="http://www.w3.org/2000/svg" viewBox="0 0 1000 916.6666666666667" preserveAspectRatio="xMaxYMax slice"><g transform="scale(1.8115942028985508)"><rect x="0" y="0" width="552" height="506" fill="#ffffff"/><rect x="0" y="0" width="46" height="46" fill="#e3e5ed"/><path d="M 0 46 A 46 46 0 0 1  46 0 L 0 46 A 46 46 0 0 0 46 0" fill="#ffffff"/><rect x="46" y="0" width="46" height="46" fill="#ffffff"/><rect x="46" y="0" width="23" height="23" fill="#e4e6ed"/><polygon points="69,0 69,23 46,23" fill="#f2f3f7"/><rect x="69" y="0" width="23" height="23" fill="#e5e7ee"/><polygon points="69,0 92,0 69,23" fill="#f3f4f7"/><rect x="46" y="23" width="23" height="23" fill="#ffffff"/><polygon points="46,23 69,23 69,46" fill="#eeeff4"/><rect x="69" y="23" width="23" height="23" fill="#fbfbfc"/><polygon points="69,23 92,46 69,46" fill="#f8f8fa"/><rect x="92" y="0" width="46" height="46" fill="#fefefe"/><rect x="92" y="0" width="46" height="46" fill="#f3f4f7"/><rect x="138" y="0" width="46" height="46" fill="#ffffff"/><rect x="138" y="0" width="23" height="23" fill="#f4f5f8"/><polygon points="161,0 161,23 138,23" fill="#e7e9f0"/><rect x="161" y="0" width="23" height="23" fill="#e8eaf0"/><polygon points="161,0 184,0 161,23" fill="#e6e8ef"/><rect x="138" y="23" width="23" height="23" fill="#eaecf2"/><polygon points="138,23 161,23 161,46" fill="#fafafc"/><rect x="161" y="23" width="23" height="23" fill="#e5e6ee"/><polygon points="161,23 184,46 161,46" fill="#fdfdfe"/><rect x="184" y="0" width="46" height="46" fill="#ffffff"/><rect x="184" y="0" width="23" height="23" fill="#e9ebf1"/><path d="M 184 23 A 23 23 0 0 1 207 0 L 207 5.75 A 17.25 17.25 0 0 0 189.75 23" fill="#ffffff"/><rect x="207" y="0" width="23" height="23" fill="#e6e8ef"/><path d="M 207 0 A 23 23 0 0 1 230 23 L 224.25 23 A 17.25 17.25 0 0 0 207 5.75" fill="#f2f3f7"/><rect x="184" y="23" width="23" height="23" fill="#e3e5ed"/><path d="M 184 23 A 23 23 0 0 0 207 46 L 207 40.25 A 17.25 17.25 0 0 1 189.75 23" fill="#f9f9fb"/><rect x="207" y="23" width="23" height="23" fill="#ebecf2"/><path d="M 207 46 A 23 23 0 0 0 230 23 L 224.25 23 A 17.25 17.25 0 0 1 207 40.25" fill="#f9fafb"/><rect x="230" y="0" width="46" height="46" fill="#ffffff"/><rect x="230" y="0" width="23" height="23" fill="#f6f7fa"/><path d="M 230 23 A 23 23 0 0 1 253 0 L 253 5.75 A 17.25 17.25 0 0 0 235.75 23" fill="#fbfbfc"/><rect x="253" y="0" width="23" height="23" fill="#eef0f4"/><path d="M 253 0 A 23 23 0 0 1 276 23 L 270.25 23 A 17.25 17.25 0 0 0 253 5.75" fill="#fafbfc"/><rect x="230" y="23" width="23" height="23" fill="#e4e6ee"/><path d="M 230 23 A 23 23 0 0 0 253 46 L 253 40.25 A 17.25 17.25 0 0 1 235.75 23" fill="#f2f3f7"/><rect x="253" y="23" width="23" height="23" fill="#f6f7f9"/><path d="M 253 46 A 23 23 0 0 0 276 23 L 270.25 23 A 17.25 17.25 0 0 1 253 40.25" fill="#f1f2f6"/><rect x="276" y="0" width="46" height="46" fill="#fbfbfc"/><path d="M 276 0 A 46 46 0 0 1 322 46 L 276 46L276 0" fill="#f3f4f8"/><rect x="322" y="0" width="46" height="46" fill="#f8f9fb"/><path d="M 322 0 A 46 46 0 0 1  368 46 L 322 0 A 46 46 0 0 0 368 46" fill="#eeeff4"/><rect x="368" y="0" width="46" height="46" fill="#f2f3f6"/><polygon points="368,0 414,0 368,46" fill="#f5f5f8"/><rect x="414" y="0" width="46" height="46" fill="#ffffff"/><rect x="414" y="0" width="23" height="23" fill="#f3f4f7"/><path d="M 414 0 A 23 23 0 0 1 437 23 L 414 23L414 0" fill="#fdfdfe"/><rect x="437" y="0" width="23" height="23" fill="#eceef3"/><path d="M 437 23 A 23 23 0 0 1  460 0 L 460 23L437 23" fill="#f8f8fa"/><rect x="414" y="23" width="23" height="23" fill="#e5e7ee"/><path d="M 414 46 A 23 23 0 0 0 437 23 L 414 23L414 46" fill="#fcfdfd"/><rect x="437" y="23" width="23" height="23" fill="#e9ebf1"/><path d="M 437 23 A 23 23 0 0 0 460 46 L 460 23L437 23" fill="#e7e9ef"/><rect x="460" y="0" width="46" height="46" fill="#ffffff"/><rect x="460" y="0" width="23" height="23" fill="#fcfcfd"/><path d="M 460 23 A 23 23 0 0 1  483 0 L 483 23L460 23" fill="#e4e6ee"/><rect x="483" y="0" width="23" height="23" fill="#e7e9ef"/><path d="M 483 0 A 23 23 0 0 1 506 23 L 483 23L483 0" fill="#eaebf1"/><rect x="460" y="23" width="23" height="23" fill="#f3f4f7"/><path d="M 460 23 A 23 23 0 0 0 483 46 L 483 23L460 23" fill="#e9eaf1"/><rect x="483" y="23" width="23" height="23" fill="#e5e6ee"/><path d="M 483 46 A 23 23 0 0 0 506 23 L 483 23L483 46" fill="#f8f8fa"/><rect x="506" y="0" width="46" height="46" fill="#f2f3f6"/><polygon points="506,0 552,0 506,46" fill="#eceef3"/><rect x="0" y="46" width="46" height="46" fill="#ffffff"/><rect x="0" y="46" width="23" height="23" fill="#f3f4f7"/><path d="M 0 46 A 23 23 0 0 0 23 69 L 23 46L0 46" fill="#eeeff4"/><rect x="23" y="46" width="23" height="23" fill="#eff0f5"/><path d="M 23 69 A 23 23 0 0 0 46 46 L 23 46L23 69" fill="#f4f5f8"/><rect x="0" y="69" width="23" height="23" fill="#f0f2f6"/><path d="M 0 92 A 23 23 0 0 1  23 69 L 23 92L0 92" fill="#fcfcfd"/><rect x="23" y="69" width="23" height="23" fill="#eaecf2"/><path d="M 23 69 A 23 23 0 0 1 46 92 L 23 92L23 69" fill="#e6e7ef"/><rect x="46" y="46" width="46" height="46" fill="#ffffff"/><rect x="46" y="46" width="23" height="23" fill="#e7e8ef"/><circle cx="57.5" cy="57.5" r="11.5" fill="#f7f7fa"/><rect x="69" y="46" width="23" height="23" fill="#f1f2f6"/><rect x="69" y="46" width="23" height="23" fill="#e7e9f0"/><rect x="46" y="69" width="23" height="23" fill="#fafafc"/><circle cx="57.5" cy="80.5" r="11.5" fill="#eaecf2"/><rect x="69" y="69" width="23" height="23" fill="#f3f4f7"/><rect x="69" y="69" width="23" height="23" fill="#f2f3f7"/><rect x="92" y="46" width="46" height="46" fill="#eceef3"/><rect x="92" y="46" width="46" height="46" fill="#f3f4f7"/><rect x="138" y="46" width="46" height="46" fill="#ffffff"/><rect x="138" y="46" width="23" height="23" fill="#f5f6f9"/><path d="M 138 69 A 23 23 0 0 1  161 46 L 161 69L138 69" fill="#f9f9fb"/><rect x="161" y="46" width="23" height="23" fill="#f0f1f5"/><path d="M 161 46 A 23 23 0 0 1 184 69 L 161 69L161 46" fill="#e4e6ee"/><rect x="138" y="69" width="23" height="23" fill="#ebecf2"/><path d="M 138 69 A 23 23 0 0 0 161 92 L 161 69L138 69" fill="#f5f6f9"/><rect x="161" y="69" width="23" height="23" fill="#ebedf2"/><path d="M 161 92 A 23 23 0 0 0 184 69 L 161 69L161 92" fill="#f9f9fb"/><rect x="184" y="46" width="46" height="46" fill="#ffffff"/><rect x="184" y="46" width="23" height="23" fill="#f2f3f7"/><polygon points="207,46 207,69 184,69" fill="#fdfdfe"/><rect x="207" y="46" width="23" height="23" fill="#f1f2f6"/><polygon points="207,46 230,46 207,69" fill="#e5e7ef"/><rect x="184" y="69" width="23" height="23" fill="#fbfbfc"/><polygon points="184,69 207,69 207,92" fill="#f0f1f5"/><rect x="207" y="69" width="23" height="23" fill="#e7e8ef"/><polygon points="207,69 230,92 207,92" fill="#ffffff"/><rect x="230" y="46" width="46" height="46" fill="#ffffff"/><rect x="230" y="46" width="23" height="23" fill="#e4e6ed"/><path d="M 230 46 A 23 23 0 0 1 253 69 L 230 69L230 46" fill="#eff1f5"/><rect x="253" y="46" width="23" height="23" fill="#fefefe"/><path d="M 253 69 A 23 23 0 0 1  276 46 L 276 69L253 69" fill="#edeff4"/><rect x="230" y="69" width="23" height="23" fill="#f3f4f7"/><path d="M 230 92 A 23 23 0 0 0 253 69 L 230 69L230 92" fill="#ebecf2"/><rect x="253" y="69" width="23" height="23" fill="#eff0f5"/><path d="M 253 69 A 23 23 0 0 0 276 92 L 276 69L253 69" fill="#f6f7f9"/><rect x="276" y="46" width="46" height="46" fill="#fdfdfe"/><polygon points="276,46 322,46 276,92" fill="#f2f3f7"/><rect x="322" y="46" width="46" height="46" fill="#ffffff"/><rect x="322" y="46" width="23" height="23" fill="#f4f5f8"/><path d="M 322 69 A 23 23 0 0 1 345 46 L 345 51.75 A 17.25 17.25 0 0 0 327.75 69" fill="#f1f2f6"/><rect x="345" y="46" width="23" height="23" fill="#f9fafb"/><path d="M 345 46 A 23 23 0 0 1 368 69 L 362.25 69 A 17.25 17.25 0 0 0 345 51.75" fill="#f2f3f7"/><rect x="322" y="69" width="23" height="23" fill="#feffff"/><path d="M 322 69 A 23 23 0 0 0 345 92 L 345 86.25 A 17.25 17.25 0 0 1 327.75 69" fill="#eeeff4"/><rect x="345" y="69" width="23" height="23" fill="#eeeff4"/><path d="M 345 92 A 23 23 0 0 0 368 69 L 362.25 69 A 17.25 17.25 0 0 1 345 86.25" fill="#e9ebf1"/><rect x="368" y="46" width="46" height="46" fill="#ffffff"/><rect x="368" y="46" width="23" height="23" fill="#f6f6f9"/><path d="M 368 69 A 23 23 0 0 0 391 46 L 368 46L368 69" fill="#f2f3f6"/><rect x="391" y="46" width="23" height="23" fill="#e6e8ef"/><path d="M 391 46 A 23 23 0 0 0 414 69 L 414 46L391 46" fill="#f2f3f7"/><rect x="368" y="69" width="23" height="23" fill="#fdfdfe"/><path d="M 368 69 A 23 23 0 0 1 391 92 L 368 92L368 69" fill="#ebecf2"/><rect x="391" y="69" width="23" height="23" fill="#fcfdfd"/><path d="M 391 92 A 23 23 0 0 1  414 69 L 414 92L391 92" fill="#ecedf3"/><rect x="414" y="46" width="46" height="46" fill="#e4e6ee"/><rect x="414" y="46" width="46" height="46" fill="#f0f1f5"/><rect x="460" y="46" width="46" height="46" fill="#e6e8ef"/><polygon points="460,46 506,46 460,92" fill="#e3e5ed"/><rect x="506" y="46" width="46" height="46" fill="#ffffff"/><rect x="506" y="46" width="23" height="23" fill="#f4f5f8"/><path d="M 506 69 A 23 23 0 0 1 529 46 L 529 51.75 A 17.25 17.25 0 0 0 511.75 69" fill="#f8f8fa"/><rect x="529" y="46" width="23" height="23" fill="#eeeff4"/><path d="M 529 46 A 23 23 0 0 1 552 69 L 546.25 69 A 17.25 17.25 0 0 0 529 51.75" fill="#f7f8fa"/><rect x="506" y="69" width="23" height="23" fill="#f8f9fb"/><path d="M 506 69 A 23 23 0 0 0 529 92 L 529 86.25 A 17.25 17.25 0 0 1 511.75 69" fill="#ebedf2"/><rect x="529" y="69" width="23" height="23" fill="#f3f4f7"/><path d="M 529 92 A 23 23 0 0 0 552 69 L 546.25 69 A 17.25 17.25 0 0 1 529 86.25" fill="#f2f3f6"/><rect x="0" y="92" width="46" height="46" fill="#ffffff"/><rect x="0" y="92" width="23" height="23" fill="#f1f2f6"/><path d="M 0 92 A 23 23 0 0 1 23 115 L 0 115L0 92" fill="#e5e6ee"/><rect x="23" y="92" width="23" height="23" fill="#fafafc"/><path d="M 23 115 A 23 23 0 0 1  46 92 L 46 115L23 115" fill="#ebedf2"/><rect x="0" y="115" width="23" height="23" fill="#f5f6f9"/><path d="M 0 138 A 23 23 0 0 0 23 115 L 0 115L0 138" fill="#e3e5ed"/><rect x="23" y="115" width="23" height="23" fill="#ecedf3"/><path d="M 23 115 A 23 23 0 0 0 46 138 L 46 115L23 115" fill="#f7f8fa"/><rect x="46" y="92" width="46" height="46" fill="#ffffff"/><rect x="46" y="92" width="23" height="23" fill="#e6e8ef"/><path d="M 46 115 A 23 23 0 0 0 69 92 L 46 92L46 115" fill="#e8eaf0"/><rect x="69" y="92" width="23" height="23" fill="#eaebf1"/><path d="M 69 92 A 23 23 0 0 0 92 115 L 92 92L69 92" fill="#e7e9f0"/><rect x="46" y="115" width="23" height="23" fill="#fbfbfc"/><path d="M 46 115 A 23 23 0 0 1 69 138 L 46 138L46 115" fill="#edeef3"/><rect x="69" y="115" width="23" height="23" fill="#eeeff4"/><path d="M 69 138 A 23 23 0 0 1  92 115 L 92 138L69 138" fill="#f1f2f6"/><rect x="92" y="92" width="46" height="46" fill="#f2f3f7"/><path d="M 92 138 A 46 46 0 0 1  138 92 L 92 138 A 46 46 0 0 0 138 92" fill="#e4e6ee"/><rect x="138" y="92" width="46" height="46" fill="#ffffff"/><rect x="138" y="92" width="23" height="23" fill="#f7f8fa"/><polygon points="161,92 161,115 138,115" fill="#f7f7fa"/><rect x="161" y="92" width="23" height="23" fill="#f2f3f7"/><polygon points="161,92 184,115 161,115" fill="#f0f1f5"/><rect x="138" y="115" width="23" height="23" fill="#fdfdfe"/><polygon points="138,115 161,115 138,138" fill="#eeeff4"/><rect x="161" y="115" width="23" height="23" fill="#e4e6ee"/><polygon points="161,115 184,115 184,138" fill="#f9f9fb"/><rect x="184" y="92" width="46" height="46" fill="#ffffff"/><rect x="184" y="92" width="23" height="23" fill="#fdfdfd"/><path d="M 184 92 A 23 23 0 0 0 207 115 L 207 92L184 92" fill="#f7f8fa"/><rect x="207" y="92" width="23" height="23" fill="#e5e7ee"/><path d="M 207 115 A 23 23 0 0 0 230 92 L 207 92L207 115" fill="#ebedf2"/><rect x="184" y="115" width="23" height="23" fill="#fcfcfd"/><path d="M 184 138 A 23 23 0 0 1  207 115 L 207 138L184 138" fill="#f6f7f9"/><rect x="207" y="115" width="23" height="23" fill="#eff0f5"/><path d="M 207 115 A 23 23 0 0 1 230 138 L 207 138L207 115" fill="#f6f7f9"/><rect x="230" y="92" width="46" height="46" fill="#e9ebf1"/><polygon points="230,92 276,92 276,138" fill="#fefefe"/><rect x="276" y="92" width="46" height="46" fill="#ffffff"/><rect x="276" y="92" width="23" height="23" fill="#f8f9fb"/><path d="M 276 92 A 23 23 0 0 0 299 115 L 299 92L276 92" fill="#f1f2f6"/><rect x="299" y="92" width="23" height="23" fill="#fefefe"/><path d="M 299 115 A 23 23 0 0 0 322 92 L 299 92L299 115" fill="#fefefe"/><rect x="276" y="115" width="23" height="23" fill="#f4f5f8"/><path d="M 276 138 A 23 23 0 0 1  299 115 L 299 138L276 138" fill="#e7e9f0"/><rect x="299" y="115" width="23" height="23" fill="#e8eaf0"/><path d="M 299 115 A 23 23 0 0 1 322 138 L 299 138L299 115" fill="#eef0f4"/><rect x="322" y="92" width="46" height="46" fill="#ffffff"/><rect x="322" y="92" width="23" height="23" fill="#eaecf2"/><polygon points="345,92 345,115 322,115" fill="#e9ebf1"/><rect x="345" y="92" width="23" height="23" fill="#edeef3"/><polygon points="345,92 368,115 345,115" fill="#eff0f5"/><rect x="322" y="115" width="23" height="23" fill="#e9ebf1"/><polygon points="322,115 345,115 345,138" fill="#e5e7ef"/><rect x="345" y="115" width="23" height="23" fill="#f9f9fb"/><polygon points="345,115 368,115 345,138" fill="#e6e8ef"/><rect x="368" y="92" width="46" height="46" fill="#ffffff"/><rect x="368" y="92" width="23" height="23" fill="#f0f1f5"/><polygon points="391,92 391,115 368,115" fill="#e4e5ed"/><rect x="391" y="92" width="23" height="23" fill="#f6f7f9"/><polygon points="391,92 414,115 391,115" fill="#f8f9fb"/><rect x="368" y="115" width="23" height="23" fill="#f6f7f9"/><polygon points="368,115 391,115 368,138" fill="#edeef3"/><rect x="391" y="115" width="23" height="23" fill="#e7e9f0"/><polygon points="391,115 414,115 414,138" fill="#f4f4f8"/><rect x="414" y="92" width="46" height="46" fill="#ffffff"/><rect x="414" y="92" width="23" height="23" fill="#e7e9f0"/><path d="M 414 115 A 23 23 0 0 0 437 92 L 414 92L414 115" fill="#f3f4f7"/><rect x="437" y="92" width="23" height="23" fill="#eef0f4"/><path d="M 437 92 A 23 23 0 0 0 460 115 L 460 92L437 92" fill="#f4f5f8"/><rect x="414" y="115" width="23" height="23" fill="#e3e5ed"/><path d="M 414 115 A 23 23 0 0 1 437 138 L 414 138L414 115" fill="#ecedf2"/><rect x="437" y="115" width="23" height="23" fill="#edeef3"/><path d="M 437 138 A 23 23 0 0 1  460 115 L 460 138L437 138" fill="#edeff4"/><rect x="460" y="92" width="46" height="46" fill="#e4e6ee"/><path d="M 460 92 A 46 46 0 0 0 506 138 L 506 92L460 92" fill="#fcfcfd"/><rect x="506" y="92" width="46" height="46" fill="#f3f4f7"/><polygon points="506,92 552,92 506,138" fill="#f0f1f5"/><rect x="0" y="138" width="46" height="46" fill="#ffffff"/><rect x="0" y="138" width="23" height="23" fill="#fafbfc"/><path d="M 0 161 A 23 23 0 0 1 23 138 L 23 143.75 A 17.25 17.25 0 0 0 5.75 161" fill="#e7e8ef"/><rect x="23" y="138" width="23" height="23" fill="#ebecf2"/><path d="M 23 138 A 23 23 0 0 1 46 161 L 40.25 161 A 17.25 17.25 0 0 0 23 143.75" fill="#ecedf3"/><rect x="0" y="161" width="23" height="23" fill="#f3f4f7"/><path d="M 0 161 A 23 23 0 0 0 23 184 L 23 178.25 A 17.25 17.25 0 0 1 5.75 161" fill="#eff0f5"/><rect x="23" y="161" width="23" height="23" fill="#edeff4"/><path d="M 23 184 A 23 23 0 0 0 46 161 L 40.25 161 A 17.25 17.25 0 0 1 23 178.25" fill="#f0f1f6"/><rect x="46" y="138" width="46" height="46" fill="#ffffff"/><rect x="46" y="138" width="23" height="23" fill="#edeef3"/><circle cx="57.5" cy="149.5" r="11.5" fill="#f6f7f9"/><rect x="69" y="138" width="23" height="23" fill="#f5f6f9"/><rect x="69" y="138" width="23" height="23" fill="#fcfdfd"/><rect x="46" y="161" width="23" height="23" fill="#eaebf1"/><circle cx="57.5" cy="172.5" r="11.5" fill="#f5f6f9"/><rect x="69" y="161" width="23" height="23" fill="#f3f4f8"/><rect x="69" y="161" width="23" height="23" fill="#fcfcfd"/><rect x="92" y="138" width="46" height="46" fill="#ffffff"/><rect x="92" y="138" width="23" height="23" fill="#f3f4f7"/><path d="M 92 161 A 23 23 0 0 1  115 138 L 115 161L92 161" fill="#f5f6f9"/><rect x="115" y="138" width="23" height="23" fill="#fbfbfc"/><path d="M 115 138 A 23 23 0 0 1 138 161 L 115 161L115 138" fill="#e8e9f0"/><rect x="92" y="161" width="23" height="23" fill="#f5f6f8"/><path d="M 92 161 A 23 23 0 0 0 115 184 L 115 161L92 161" fill="#f7f7fa"/><rect x="115" y="161" width="23" height="23" fill="#e6e8ef"/><path d="M 115 184 A 23 23 0 0 0 138 161 L 115 161L115 184" fill="#f5f5f8"/><rect x="138" y="138" width="46" height="46" fill="#e6e8ef"/><path d="M 138 184 A 46 46 0 0 1  184 138 L 138 184 A 46 46 0 0 0 184 138" fill="#fefefe"/><rect x="184" y="138" width="46" height="46" fill="#ffffff"/><rect x="184" y="138" width="23" height="23" fill="#f7f7fa"/><path d="M 184 161 A 23 23 0 0 0 207 138 L 184 138L184 161" fill="#e8eaf0"/><rect x="207" y="138" width="23" height="23" fill="#f3f4f7"/><path d="M 207 138 A 23 23 0 0 0 230 161 L 230 138L207 138" fill="#e8e9f0"/><rect x="184" y="161" width="23" height="23" fill="#f5f6f9"/><path d="M 184 161 A 23 23 0 0 1 207 184 L 184 184L184 161" fill="#edeef3"/><rect x="207" y="161" width="23" height="23" fill="#f7f8fa"/><path d="M 207 184 A 23 23 0 0 1  230 161 L 230 184L207 184" fill="#e3e5ed"/><rect x="230" y="138" width="46" height="46" fill="#ffffff"/><rect x="230" y="138" width="23" height="23" fill="#e9ebf1"/><path d="M 230 138 A 23 23 0 0 1 253 161 L 230 161L230 138" fill="#f5f6f9"/><rect x="253" y="138" width="23" height="23" fill="#e8eaf0"/><path d="M 253 161 A 23 23 0 0 1  276 138 L 276 161L253 161" fill="#e5e7ee"/><rect x="230" y="161" width="23" height="23" fill="#ecedf2"/><path d="M 230 184 A 23 23 0 0 0 253 161 L 230 161L230 184" fill="#eaecf2"/><rect x="253" y="161" width="23" height="23" fill="#e9eaf1"/><path d="M 253 161 A 23 23 0 0 0 276 184 L 276 161L253 161" fill="#fdfdfd"/><rect x="276" y="138" width="46" height="46" fill="#fafafc"/><polygon points="276,138 322,138 276,184" fill="#e8eaf0"/><rect x="322" y="138" width="46" height="46" fill="#e5e7ee"/><polygon points="322,138 368,138 368,184" fill="#fcfcfd"/><rect x="368" y="138" width="46" height="46" fill="#f3f4f7"/><polygon points="368,138 414,138 414,184" fill="#e6e8ef"/><rect x="414" y="138" width="46" height="46" fill="#e9ebf1"/><rect x="414" y="138" width="46" height="46" fill="#e3e5ed"/><rect x="460" y="138" width="46" height="46" fill="#f1f2f6"/><polygon points="506,138 506,184 460,184" fill="#e8eaf0"/><rect x="506" y="138" width="46" height="46" fill="#e6e8ef"/><path d="M 506 184 A 46 46 0 0 1  552 138 L 552 184L506 184" fill="#fafbfc"/><rect x="0" y="184" width="46" height="46" fill="#fefeff"/><rect x="0" y="184" width="46" height="46" fill="#f9fafb"/><rect x="46" y="184" width="46" height="46" fill="#f0f1f5"/><path d="M 46 230 A 46 46 0 0 1  92 184 L 92 230L46 230" fill="#fdfefe"/><rect x="92" y="184" width="46" height="46" fill="#ffffff"/><rect x="92" y="184" width="23" height="23" fill="#f1f2f6"/><polygon points="115,184 115,207 92,207" fill="#ecedf3"/><rect x="115" y="184" width="23" height="23" fill="#eeeff4"/><polygon points="115,184 138,207 115,207" fill="#f6f6f9"/><rect x="92" y="207" width="23" height="23" fill="#fbfcfd"/><polygon points="92,207 115,207 92,230" fill="#f6f7f9"/><rect x="115" y="207" width="23" height="23" fill="#eff0f5"/><polygon points="115,207 138,207 138,230" fill="#edeef3"/><rect x="138" y="184" width="46" height="46" fill="#f6f7f9"/><polygon points="138,184 184,230 138,230" fill="#f2f3f7"/><rect x="184" y="184" width="46" height="46" fill="#eeeff4"/><path d="M 184 184 A 46 46 0 0 0 230 230 L 230 184L184 184" fill="#fefefe"/><rect x="230" y="184" width="46" height="46" fill="#f0f1f5"/><polygon points="230,184 276,184 276,230" fill="#fbfbfc"/><rect x="276" y="184" width="46" height="46" fill="#e9eaf1"/><path d="M 276 184 A 46 46 0 0 1  322 230 L 276 184 A 46 46 0 0 0 322 230" fill="#f5f6f8"/><rect x="322" y="184" width="46" height="46" fill="#ffffff"/><rect x="322" y="184" width="23" height="23" fill="#e4e6ee"/><path d="M 322 207 A 23 23 0 0 1 345 184 L 345 189.75 A 17.25 17.25 0 0 0 327.75 207" fill="#e6e8ef"/><rect x="345" y="184" width="23" height="23" fill="#eaecf2"/><path d="M 345 184 A 23 23 0 0 1 368 207 L 362.25 207 A 17.25 17.25 0 0 0 345 189.75" fill="#ecedf3"/><rect x="322" y="207" width="23" height="23" fill="#eeeff4"/><path d="M 322 207 A 23 23 0 0 0 345 230 L 345 224.25 A 17.25 17.25 0 0 1 327.75 207" fill="#f9f9fb"/><rect x="345" y="207" width="23" height="23" fill="#f5f6f9"/><path d="M 345 230 A 23 23 0 0 0 368 207 L 362.25 207 A 17.25 17.25 0 0 1 345 224.25" fill="#f7f8fa"/><rect x="368" y="184" width="46" height="46" fill="#ffffff"/><rect x="368" y="184" width="23" height="23" fill="#eaecf2"/><circle cx="379.5" cy="195.5" r="11.5" fill="#eaebf1"/><rect x="391" y="184" width="23" height="23" fill="#eff1f5"/><rect x="391" y="184" width="23" height="23" fill="#f9fafb"/><rect x="368" y="207" width="23" height="23" fill="#eaebf1"/><circle cx="379.5" cy="218.5" r="11.5" fill="#f6f7f9"/><rect x="391" y="207" width="23" height="23" fill="#eeeff4"/><rect x="391" y="207" width="23" height="23" fill="#e4e6ee"/><rect x="414" y="184" width="46" height="46" fill="#ffffff"/><rect x="414" y="184" width="23" height="23" fill="#f2f2f6"/><polygon points="437,184 437,207 414,207" fill="#ecedf2"/><rect x="437" y="184" width="23" height="23" fill="#e5e7ee"/><polygon points="437,184 460,207 437,207" fill="#e5e6ee"/><rect x="414" y="207" width="23" height="23" fill="#e4e6ed"/><polygon points="414,207 437,207 437,230" fill="#fefefe"/><rect x="437" y="207" width="23" height="23" fill="#e7e9f0"/><polygon points="437,207 460,207 437,230" fill="#edeef4"/><rect x="460" y="184" width="46" height="46" fill="#e6e8ef"/><rect x="460" y="184" width="46" height="46" fill="#f6f7f9"/><rect x="506" y="184" width="46" height="46" fill="#e6e8ef"/><rect x="506" y="184" width="46" height="46" fill="#f8f9fb"/><rect x="0" y="230" width="46" height="46" fill="#e5e7ee"/><rect x="0" y="230" width="46" height="46" fill="#eaecf2"/><rect x="46" y="230" width="46" height="46" fill="#ffffff"/><rect x="46" y="230" width="23" height="23" fill="#ecedf2"/><path d="M 46 230 A 23 23 0 0 0 69 253 L 69 230L46 230" fill="#fafbfc"/><rect x="69" y="230" width="23" height="23" fill="#ebedf2"/><path d="M 69 253 A 23 23 0 0 0 92 230 L 69 230L69 253" fill="#f2f3f7"/><rect x="46" y="253" width="23" height="23" fill="#e8eaf0"/><path d="M 46 276 A 23 23 0 0 1  69 253 L 69 276L46 276" fill="#fdfdfe"/><rect x="69" y="253" width="23" height="23" fill="#f1f2f6"/><path d="M 69 253 A 23 23 0 0 1 92 276 L 69 276L69 253" fill="#f2f3f6"/><rect x="92" y="230" width="46" height="46" fill="#ffffff"/><rect x="92" y="230" width="23" height="23" fill="#f0f2f6"/><path d="M 92 230 A 23 23 0 0 1 115 253 L 92 253L92 230" fill="#eceef3"/><rect x="115" y="230" width="23" height="23" fill="#e3e5ed"/><path d="M 115 253 A 23 23 0 0 1  138 230 L 138 253L115 253" fill="#eff0f5"/><rect x="92" y="253" width="23" height="23" fill="#fbfbfc"/><path d="M 92 276 A 23 23 0 0 0 115 253 L 92 253L92 276" fill="#fcfcfd"/><rect x="115" y="253" width="23" height="23" fill="#fcfcfd"/><path d="M 115 253 A 23 23 0 0 0 138 276 L 138 253L115 253" fill="#e3e5ed"/><rect x="138" y="230" width="46" height="46" fill="#eff1f5"/><rect x="138" y="230" width="46" height="46" fill="#e4e6ee"/><rect x="184" y="230" width="46" height="46" fill="#fdfdfe"/><rect x="184" y="230" width="46" height="46" fill="#e9ebf1"/><rect x="230" y="230" width="46" height="46" fill="#ffffff"/><rect x="230" y="230" width="23" height="23" fill="#f0f1f5"/><path d="M 230 253 A 23 23 0 0 0 253 230 L 230 230L230 253" fill="#f1f2f6"/><rect x="253" y="230" width="23" height="23" fill="#e5e6ee"/><path d="M 253 230 A 23 23 0 0 0 276 253 L 276 230L253 230" fill="#f7f7fa"/><rect x="230" y="253" width="23" height="23" fill="#eaebf1"/><path d="M 230 253 A 23 23 0 0 1 253 276 L 230 276L230 253" fill="#f6f7f9"/><rect x="253" y="253" width="23" height="23" fill="#ecedf3"/><path d="M 253 276 A 23 23 0 0 1  276 253 L 276 276L253 276" fill="#f9fafb"/><rect x="276" y="230" width="46" height="46" fill="#e4e6ed"/><rect x="276" y="230" width="46" height="46" fill="#e4e6ee"/><rect x="322" y="230" width="46" height="46" fill="#e5e7ef"/><polygon points="322,230 368,230 368,276" fill="#f2f3f7"/><rect x="368" y="230" width="46" height="46" fill="#ffffff"/><rect x="368" y="230" width="23" height="23" fill="#f4f4f8"/><path d="M 368 253 A 23 23 0 0 1 391 230 L 391 235.75 A 17.25 17.25 0 0 0 373.75 253" fill="#e4e6ee"/><rect x="391" y="230" width="23" height="23" fill="#fcfcfd"/><path d="M 391 230 A 23 23 0 0 1 414 253 L 408.25 253 A 17.25 17.25 0 0 0 391 235.75" fill="#f7f7fa"/><rect x="368" y="253" width="23" height="23" fill="#e3e5ed"/><path d="M 368 253 A 23 23 0 0 0 391 276 L 391 270.25 A 17.25 17.25 0 0 1 373.75 253" fill="#eeeff4"/><rect x="391" y="253" width="23" height="23" fill="#eeeff4"/><path d="M 391 276 A 23 23 0 0 0 414 253 L 408.25 253 A 17.25 17.25 0 0 1 391 270.25" fill="#f4f5f8"/><rect x="414" y="230" width="46" height="46" fill="#ffffff"/><rect x="414" y="230" width="23" height="23" fill="#e8e9f0"/><path d="M 414 253 A 23 23 0 0 1  437 230 L 437 253L414 253" fill="#f9f9fb"/><rect x="437" y="230" width="23" height="23" fill="#f4f4f8"/><path d="M 437 230 A 23 23 0 0 1 460 253 L 437 253L437 230" fill="#e4e6ee"/><rect x="414" y="253" width="23" height="23" fill="#eef0f4"/><path d="M 414 253 A 23 23 0 0 0 437 276 L 437 253L414 253" fill="#f4f5f8"/><rect x="437" y="253" width="23" height="23" fill="#eff0f5"/><path d="M 437 276 A 23 23 0 0 0 460 253 L 437 253L437 276" fill="#f7f8fa"/><rect x="460" y="230" width="46" height="46" fill="#ffffff"/><rect x="460" y="230" width="23" height="23" fill="#f4f5f8"/><path d="M 460 253 A 23 23 0 0 0 483 230 L 460 230L460 253" fill="#f3f4f7"/><rect x="483" y="230" width="23" height="23" fill="#e6e7ef"/><path d="M 483 230 A 23 23 0 0 0 506 253 L 506 230L483 230" fill="#f8f8fa"/><rect x="460" y="253" width="23" height="23" fill="#fbfbfd"/><path d="M 460 253 A 23 23 0 0 1 483 276 L 460 276L460 253" fill="#eeeff4"/><rect x="483" y="253" width="23" height="23" fill="#fcfcfd"/><path d="M 483 276 A 23 23 0 0 1  506 253 L 506 276L483 276" fill="#ebedf2"/><rect x="506" y="230" width="46" height="46" fill="#f6f7f9"/><path d="M 506 276 A 46 46 0 0 1  552 230 L 506 276 A 46 46 0 0 0 552 230" fill="#eeeff4"/><rect x="0" y="276" width="46" height="46" fill="#f0f1f5"/><rect x="0" y="276" width="46" height="46" fill="#eff0f5"/><rect x="46" y="276" width="46" height="46" fill="#ffffff"/><rect x="46" y="276" width="23" height="23" fill="#fefefe"/><polygon points="69,276 69,299 46,299" fill="#f5f5f8"/><rect x="69" y="276" width="23" height="23" fill="#e5e7ee"/><polygon points="69,276 92,276 69,299" fill="#f0f1f5"/><rect x="46" y="299" width="23" height="23" fill="#ecedf3"/><polygon points="46,299 69,299 69,322" fill="#f9f9fb"/><rect x="69" y="299" width="23" height="23" fill="#ecedf3"/><polygon points="69,299 92,322 69,322" fill="#e7e9f0"/><rect x="92" y="276" width="46" height="46" fill="#ffffff"/><rect x="92" y="276" width="23" height="23" fill="#f0f1f6"/><polygon points="115,276 115,299 92,299" fill="#fafbfc"/><rect x="115" y="276" width="23" height="23" fill="#e6e8ef"/><polygon points="115,276 138,276 115,299" fill="#eeeff4"/><rect x="92" y="299" width="23" height="23" fill="#e9ebf1"/><polygon points="92,299 115,299 115,322" fill="#fbfbfc"/><rect x="115" y="299" width="23" height="23" fill="#ebecf2"/><polygon points="115,299 138,322 115,322" fill="#eff1f5"/><rect x="138" y="276" width="46" height="46" fill="#e3e5ed"/><path d="M 138 322 A 46 46 0 0 1  184 276 L 138 322 A 46 46 0 0 0 184 276" fill="#eff0f5"/><rect x="184" y="276" width="46" height="46" fill="#edeef4"/><path d="M 184 276 A 46 46 0 0 1  230 322 L 184 276 A 46 46 0 0 0 230 322" fill="#f9f9fb"/><rect x="230" y="276" width="46" height="46" fill="#eaebf1"/><polygon points="276,276 276,322 230,322" fill="#fbfbfc"/><rect x="276" y="276" width="46" height="46" fill="#ffffff"/><rect x="276" y="276" width="23" height="23" fill="#e7e9f0"/><path d="M 276 299 A 23 23 0 0 0 299 276 L 276 276L276 299" fill="#fbfbfc"/><rect x="299" y="276" width="23" height="23" fill="#fdfdfd"/><path d="M 299 276 A 23 23 0 0 0 322 299 L 322 276L299 276" fill="#eeeff4"/><rect x="276" y="299" width="23" height="23" fill="#fcfcfd"/><path d="M 276 299 A 23 23 0 0 1 299 322 L 276 322L276 299" fill="#e3e5ed"/><rect x="299" y="299" width="23" height="23" fill="#ebedf2"/><path d="M 299 322 A 23 23 0 0 1  322 299 L 322 322L299 322" fill="#f9fafb"/><rect x="322" y="276" width="46" height="46" fill="#ffffff"/><rect x="322" y="276" width="23" height="23" fill="#f2f3f7"/><circle cx="333.5" cy="287.5" r="11.5" fill="#eeeff4"/><rect x="345" y="276" width="23" height="23" fill="#e8e9f0"/><rect x="345" y="276" width="23" height="23" fill="#f5f5f8"/><rect x="322" y="299" width="23" height="23" fill="#e8e9f0"/><circle cx="333.5" cy="310.5" r="11.5" fill="#f9fafb"/><rect x="345" y="299" width="23" height="23" fill="#eeeff4"/><rect x="345" y="299" width="23" height="23" fill="#edeff4"/><rect x="368" y="276" width="46" height="46" fill="#ffffff"/><rect x="368" y="276" width="23" height="23" fill="#fdfdfe"/><path d="M 368 276 A 23 23 0 0 0 391 299 L 391 276L368 276" fill="#f1f2f6"/><rect x="391" y="276" width="23" height="23" fill="#f8f9fb"/><path d="M 391 299 A 23 23 0 0 0 414 276 L 391 276L391 299" fill="#fdfdfd"/><rect x="368" y="299" width="23" height="23" fill="#e6e8ef"/><path d="M 368 322 A 23 23 0 0 1  391 299 L 391 322L368 322" fill="#ecedf3"/><rect x="391" y="299" width="23" height="23" fill="#ebedf2"/><path d="M 391 299 A 23 23 0 0 1 414 322 L 391 322L391 299" fill="#f3f4f7"/><rect x="414" y="276" width="46" height="46" fill="#ffffff"/><rect x="414" y="276" width="23" height="23" fill="#e9eaf1"/><path d="M 414 299 A 23 23 0 0 0 437 276 L 414 276L414 299" fill="#f3f4f7"/><rect x="437" y="276" width="23" height="23" fill="#fcfcfd"/><path d="M 437 276 A 23 23 0 0 0 460 299 L 460 276L437 276" fill="#f8f8fa"/><rect x="414" y="299" width="23" height="23" fill="#eeeff4"/><path d="M 414 299 A 23 23 0 0 1 437 322 L 414 322L414 299" fill="#f0f1f5"/><rect x="437" y="299" width="23" height="23" fill="#f3f4f7"/><path d="M 437 322 A 23 23 0 0 1  460 299 L 460 322L437 322" fill="#f4f5f8"/><rect x="460" y="276" width="46" height="46" fill="#ffffff"/><rect x="460" y="276" width="23" height="23" fill="#ffffff"/><polygon points="483,276 483,299 460,299" fill="#edeef4"/><rect x="483" y="276" width="23" height="23" fill="#ffffff"/><polygon points="483,276 506,276 483,299" fill="#e5e7ee"/><rect x="460" y="299" width="23" height="23" fill="#f6f7f9"/><polygon points="460,299 483,299 483,322" fill="#f2f2f6"/><rect x="483" y="299" width="23" height="23" fill="#e6e8ef"/><polygon points="483,299 506,322 483,322" fill="#fdfefe"/><rect x="506" y="276" width="46" height="46" fill="#ffffff"/><rect x="506" y="276" width="23" height="23" fill="#f8f9fb"/><path d="M 506 299 A 23 23 0 0 0 529 276 L 506 276L506 299" fill="#f0f1f5"/><rect x="529" y="276" width="23" height="23" fill="#e6e8ef"/><path d="M 529 276 A 23 23 0 0 0 552 299 L 552 276L529 276" fill="#fafafc"/><rect x="506" y="299" width="23" height="23" fill="#f3f4f7"/><path d="M 506 299 A 23 23 0 0 1 529 322 L 506 322L506 299" fill="#e8e9f0"/><rect x="529" y="299" width="23" height="23" fill="#fdfdfe"/><path d="M 529 322 A 23 23 0 0 1  552 299 L 552 322L529 322" fill="#fbfbfc"/><rect x="0" y="322" width="46" height="46" fill="#edeef4"/><path d="M 0 322 A 46 46 0 0 1  46 368 L 0 322 A 46 46 0 0 0 46 368" fill="#f2f3f7"/><rect x="46" y="322" width="46" height="46" fill="#fdfdfe"/><polygon points="46,322 92,322 46,368" fill="#e5e6ee"/><rect x="92" y="322" width="46" height="46" fill="#ffffff"/><rect x="92" y="322" width="23" height="23" fill="#f5f6f9"/><polygon points="115,322 115,345 92,345" fill="#eceef3"/><rect x="115" y="322" width="23" height="23" fill="#f4f5f8"/><polygon points="115,322 138,322 115,345" fill="#fdfdfe"/><rect x="92" y="345" width="23" height="23" fill="#fbfbfc"/><polygon points="92,345 115,345 115,368" fill="#fdfefe"/><rect x="115" y="345" width="23" height="23" fill="#e6e8ef"/><polygon points="115,345 138,368 115,368" fill="#f1f2f6"/><rect x="138" y="322" width="46" height="46" fill="#edeff4"/><rect x="138" y="322" width="46" height="46" fill="#fefefe"/><rect x="184" y="322" width="46" height="46" fill="#eeeff4"/><polygon points="184,322 230,322 230,368" fill="#f4f4f8"/><rect x="230" y="322" width="46" height="46" fill="#ffffff"/><rect x="230" y="322" width="23" height="23" fill="#fcfcfd"/><path d="M 230 345 A 23 23 0 0 0 253 322 L 230 322L230 345" fill="#e8e9f0"/><rect x="253" y="322" width="23" height="23" fill="#ebedf2"/><path d="M 253 322 A 23 23 0 0 0 276 345 L 276 322L253 322" fill="#ebedf2"/><rect x="230" y="345" width="23" height="23" fill="#f8f8fa"/><path d="M 230 345 A 23 23 0 0 1 253 368 L 230 368L230 345" fill="#f8f9fb"/><rect x="253" y="345" width="23" height="23" fill="#fefefe"/><path d="M 253 368 A 23 23 0 0 1  276 345 L 276 368L253 368" fill="#e6e8ef"/><rect x="276" y="322" width="46" height="46" fill="#f3f4f7"/><path d="M 276 322 A 46 46 0 0 1 322 368 L 276 368L276 322" fill="#fbfbfd"/><rect x="322" y="322" width="46" height="46" fill="#ffffff"/><rect x="322" y="322" width="23" height="23" fill="#eaebf1"/><path d="M 322 345 A 23 23 0 0 1 345 322 L 345 327.75 A 17.25 17.25 0 0 0 327.75 345" fill="#ffffff"/><rect x="345" y="322" width="23" height="23" fill="#eceef3"/><path d="M 345 322 A 23 23 0 0 1 368 345 L 362.25 345 A 17.25 17.25 0 0 0 345 327.75" fill="#f2f3f7"/><rect x="322" y="345" width="23" height="23" fill="#e5e7ef"/><path d="M 322 345 A 23 23 0 0 0 345 368 L 345 362.25 A 17.25 17.25 0 0 1 327.75 345" fill="#f7f8fa"/><rect x="345" y="345" width="23" height="23" fill="#fbfcfd"/><path d="M 345 368 A 23 23 0 0 0 368 345 L 362.25 345 A 17.25 17.25 0 0 1 345 362.25" fill="#fcfdfd"/><rect x="368" y="322" width="46" height="46" fill="#e7e9f0"/><rect x="368" y="322" width="46" height="46" fill="#e6e8ef"/><rect x="414" y="322" width="46" height="46" fill="#ffffff"/><rect x="414" y="322" width="23" height="23" fill="#f4f5f8"/><polygon points="437,322 437,345 414,345" fill="#f0f1f5"/><rect x="437" y="322" width="23" height="23" fill="#f1f2f6"/><polygon points="437,322 460,322 437,345" fill="#f3f3f7"/><rect x="414" y="345" width="23" height="23" fill="#eaecf2"/><polygon points="414,345 437,345 437,368" fill="#fdfdfe"/><rect x="437" y="345" width="23" height="23" fill="#e8eaf0"/><polygon points="437,345 460,368 437,368" fill="#fbfbfd"/><rect x="460" y="322" width="46" height="46" fill="#ffffff"/><rect x="460" y="322" width="23" height="23" fill="#fefefe"/><path d="M 460 345 A 23 23 0 0 1 483 322 L 483 327.75 A 17.25 17.25 0 0 0 465.75 345" fill="#ecedf3"/><rect x="483" y="322" width="23" height="23" fill="#eeeff4"/><path d="M 483 322 A 23 23 0 0 1 506 345 L 500.25 345 A 17.25 17.25 0 0 0 483 327.75" fill="#f2f3f6"/><rect x="460" y="345" width="23" height="23" fill="#ecedf3"/><path d="M 460 345 A 23 23 0 0 0 483 368 L 483 362.25 A 17.25 17.25 0 0 1 465.75 345" fill="#f7f8fa"/><rect x="483" y="345" width="23" height="23" fill="#fefefe"/><path d="M 483 368 A 23 23 0 0 0 506 345 L 500.25 345 A 17.25 17.25 0 0 1 483 362.25" fill="#eeeff4"/><rect x="506" y="322" width="46" height="46" fill="#ffffff"/><rect x="506" y="322" width="23" height="23" fill="#f4f5f8"/><path d="M 506 322 A 23 23 0 0 0 529 345 L 529 322L506 322" fill="#f8f9fb"/><rect x="529" y="322" width="23" height="23" fill="#f8f9fb"/><path d="M 529 345 A 23 23 0 0 0 552 322 L 529 322L529 345" fill="#f4f5f8"/><rect x="506" y="345" width="23" height="23" fill="#f9f9fb"/><path d="M 506 368 A 23 23 0 0 1  529 345 L 529 368L506 368" fill="#fbfbfc"/><rect x="529" y="345" width="23" height="23" fill="#e6e8ef"/><path d="M 529 345 A 23 23 0 0 1 552 368 L 529 368L529 345" fill="#ebedf2"/><rect x="0" y="368" width="46" height="46" fill="#ffffff"/><rect x="0" y="368" width="23" height="23" fill="#ffffff"/><circle cx="11.5" cy="379.5" r="11.5" fill="#f4f4f8"/><rect x="23" y="368" width="23" height="23" fill="#fcfcfd"/><rect x="23" y="368" width="23" height="23" fill="#e9ebf1"/><rect x="0" y="391" width="23" height="23" fill="#eff1f5"/><circle cx="11.5" cy="402.5" r="11.5" fill="#e6e8ef"/><rect x="23" y="391" width="23" height="23" fill="#eaecf2"/><rect x="23" y="391" width="23" height="23" fill="#e9ebf1"/><rect x="46" y="368" width="46" height="46" fill="#ffffff"/><rect x="46" y="368" width="23" height="23" fill="#e6e8ef"/><polygon points="69,368 69,391 46,391" fill="#fafafc"/><rect x="69" y="368" width="23" height="23" fill="#fcfcfd"/><polygon points="69,368 92,391 69,391" fill="#e9eaf1"/><rect x="46" y="391" width="23" height="23" fill="#fafafc"/><polygon points="46,391 69,391 69,414" fill="#e9eaf1"/><rect x="69" y="391" width="23" height="23" fill="#e3e5ed"/><polygon points="69,391 92,391 69,414" fill="#f0f1f5"/><rect x="92" y="368" width="46" height="46" fill="#f9fafb"/><rect x="92" y="368" width="46" height="46" fill="#f7f8fa"/><rect x="138" y="368" width="46" height="46" fill="#e5e7ee"/><polygon points="138,368 184,414 138,414" fill="#ecedf3"/><rect x="184" y="368" width="46" height="46" fill="#ffffff"/><rect x="184" y="368" width="23" height="23" fill="#e6e7ef"/><path d="M 184 391 A 23 23 0 0 1  207 368 L 207 391L184 391" fill="#fdfefe"/><rect x="207" y="368" width="23" height="23" fill="#e9ebf1"/><path d="M 207 368 A 23 23 0 0 1 230 391 L 207 391L207 368" fill="#edeef3"/><rect x="184" y="391" width="23" height="23" fill="#edeef3"/><path d="M 184 391 A 23 23 0 0 0 207 414 L 207 391L184 391" fill="#f9f9fb"/><rect x="207" y="391" width="23" height="23" fill="#f9f9fb"/><path d="M 207 414 A 23 23 0 0 0 230 391 L 207 391L207 414" fill="#e5e7ee"/><rect x="230" y="368" width="46" height="46" fill="#eeeff4"/><polygon points="230,368 276,368 276,414" fill="#e9ebf1"/><rect x="276" y="368" width="46" height="46" fill="#ffffff"/><rect x="276" y="368" width="23" height="23" fill="#edeff4"/><polygon points="299,368 299,391 276,391" fill="#f5f6f9"/><rect x="299" y="368" width="23" height="23" fill="#eaebf1"/><polygon points="299,368 322,391 299,391" fill="#e7e9f0"/><rect x="276" y="391" width="23" height="23" fill="#e9eaf1"/><polygon points="276,391 299,391 299,414" fill="#f3f4f7"/><rect x="299" y="391" width="23" height="23" fill="#ebedf2"/><polygon points="299,391 322,391 299,414" fill="#e9ebf1"/><rect x="322" y="368" width="46" height="46" fill="#f3f4f7"/><rect x="322" y="368" width="46" height="46" fill="#e7e9f0"/><rect x="368" y="368" width="46" height="46" fill="#f3f4f7"/><rect x="368" y="368" width="46" height="46" fill="#e8eaf0"/><rect x="414" y="368" width="46" height="46" fill="#ffffff"/><rect x="414" y="368" width="23" height="23" fill="#ebecf2"/><path d="M 414 391 A 23 23 0 0 1  437 368 L 437 391L414 391" fill="#f5f6f9"/><rect x="437" y="368" width="23" height="23" fill="#fcfcfd"/><path d="M 437 368 A 23 23 0 0 1 460 391 L 437 391L437 368" fill="#f4f5f8"/><rect x="414" y="391" width="23" height="23" fill="#f8f9fb"/><path d="M 414 391 A 23 23 0 0 0 437 414 L 437 391L414 391" fill="#f7f7fa"/><rect x="437" y="391" width="23" height="23" fill="#fefefe"/><path d="M 437 414 A 23 23 0 0 0 460 391 L 437 391L437 414" fill="#fafbfc"/><rect x="460" y="368" width="46" height="46" fill="#ffffff"/><rect x="460" y="368" width="23" height="23" fill="#f9f9fb"/><path d="M 460 391 A 23 23 0 0 1 483 368 L 483 373.75 A 17.25 17.25 0 0 0 465.75 391" fill="#f2f3f7"/><rect x="483" y="368" width="23" height="23" fill="#f7f8fa"/><path d="M 483 368 A 23 23 0 0 1 506 391 L 500.25 391 A 17.25 17.25 0 0 0 483 373.75" fill="#ebecf2"/><rect x="460" y="391" width="23" height="23" fill="#fefeff"/><path d="M 460 391 A 23 23 0 0 0 483 414 L 483 408.25 A 17.25 17.25 0 0 1 465.75 391" fill="#f7f7fa"/><rect x="483" y="391" width="23" height="23" fill="#ecedf3"/><path d="M 483 414 A 23 23 0 0 0 506 391 L 500.25 391 A 17.25 17.25 0 0 1 483 408.25" fill="#e5e7ef"/><rect x="506" y="368" width="46" height="46" fill="#ffffff"/><rect x="506" y="368" width="23" height="23" fill="#e3e5ed"/><polygon points="529,368 529,391 506,391" fill="#f8f8fa"/><rect x="529" y="368" width="23" height="23" fill="#fefefe"/><polygon points="529,368 552,391 529,391" fill="#e8eaf0"/><rect x="506" y="391" width="23" height="23" fill="#fafbfc"/><polygon points="506,391 529,391 506,414" fill="#fcfcfd"/><rect x="529" y="391" width="23" height="23" fill="#fbfbfc"/><polygon points="529,391 552,391 552,414" fill="#f5f5f8"/><rect x="0" y="414" width="46" height="46" fill="#fbfbfc"/><rect x="0" y="414" width="46" height="46" fill="#e4e6ed"/><rect x="46" y="414" width="46" height="46" fill="#e7e9f0"/><path d="M 46 414 A 46 46 0 0 1 92 460 L 46 460L46 414" fill="#eff0f5"/><rect x="92" y="414" width="46" height="46" fill="#eef0f4"/><polygon points="138,414 138,460 92,460" fill="#ecedf3"/><rect x="138" y="414" width="46" height="46" fill="#fcfdfd"/><polygon points="138,414 184,414 138,460" fill="#eaebf1"/><rect x="184" y="414" width="46" height="46" fill="#e7e9f0"/><rect x="184" y="414" width="46" height="46" fill="#fbfbfc"/><rect x="230" y="414" width="46" height="46" fill="#ffffff"/><rect x="230" y="414" width="23" height="23" fill="#f9f9fb"/><path d="M 230 437 A 23 23 0 0 1  253 414 L 253 437L230 437" fill="#fafbfc"/><rect x="253" y="414" width="23" height="23" fill="#f6f7fa"/><path d="M 253 414 A 23 23 0 0 1 276 437 L 253 437L253 414" fill="#fafafc"/><rect x="230" y="437" width="23" height="23" fill="#fcfcfd"/><path d="M 230 437 A 23 23 0 0 0 253 460 L 253 437L230 437" fill="#fdfefe"/><rect x="253" y="437" width="23" height="23" fill="#e4e6ee"/><path d="M 253 460 A 23 23 0 0 0 276 437 L 253 437L253 460" fill="#ecedf3"/><rect x="276" y="414" width="46" height="46" fill="#e8e9f0"/><path d="M 276 414 A 46 46 0 0 1  322 460 L 276 414 A 46 46 0 0 0 322 460" fill="#f5f5f8"/><rect x="322" y="414" width="46" height="46" fill="#ffffff"/><rect x="322" y="414" width="23" height="23" fill="#e8eaf0"/><polygon points="345,414 345,437 322,437" fill="#e8e9f0"/><rect x="345" y="414" width="23" height="23" fill="#e4e6ed"/><polygon points="345,414 368,414 345,437" fill="#eff1f5"/><rect x="322" y="437" width="23" height="23" fill="#f0f1f5"/><polygon points="322,437 345,437 345,460" fill="#feffff"/><rect x="345" y="437" width="23" height="23" fill="#e8e9f0"/><polygon points="345,437 368,460 345,460" fill="#eceef3"/><rect x="368" y="414" width="46" height="46" fill="#e6e8ef"/><path d="M 368 414 A 46 46 0 0 0 414 460 L 414 414L368 414" fill="#f1f2f6"/><rect x="414" y="414" width="46" height="46" fill="#ffffff"/><rect x="414" y="414" width="23" height="23" fill="#f1f2f6"/><path d="M 414 437 A 23 23 0 0 1  437 414 L 437 437L414 437" fill="#eff0f5"/><rect x="437" y="414" width="23" height="23" fill="#f7f7fa"/><path d="M 437 414 A 23 23 0 0 1 460 437 L 437 437L437 414" fill="#ebecf2"/><rect x="414" y="437" width="23" height="23" fill="#f9f9fb"/><path d="M 414 437 A 23 23 0 0 0 437 460 L 437 437L414 437" fill="#f3f4f7"/><rect x="437" y="437" width="23" height="23" fill="#e5e7ee"/><path d="M 437 460 A 23 23 0 0 0 460 437 L 437 437L437 460" fill="#f6f6f9"/><rect x="460" y="414" width="46" height="46" fill="#eeeff4"/><polygon points="506,414 506,460 460,460" fill="#f8f8fa"/><rect x="506" y="414" width="46" height="46" fill="#ffffff"/><rect x="506" y="414" width="23" height="23" fill="#eceef3"/><polygon points="529,414 529,437 506,437" fill="#f6f7f9"/><rect x="529" y="414" width="23" height="23" fill="#edeef3"/><polygon points="529,414 552,437 529,437" fill="#f9fafb"/><rect x="506" y="437" width="23" height="23" fill="#ebedf2"/><polygon points="506,437 529,437 506,460" fill="#e7e9f0"/><rect x="529" y="437" width="23" height="23" fill="#ecedf3"/><polygon points="529,437 552,437 552,460" fill="#fcfcfd"/><rect x="0" y="460" width="46" height="46" fill="#ffffff"/><rect x="0" y="460" width="23" height="23" fill="#eff0f5"/><polygon points="23,460 23,483 0,483" fill="#f7f7fa"/><rect x="23" y="460" width="23" height="23" fill="#e7e8ef"/><polygon points="23,460 46,483 23,483" fill="#e6e8ef"/><rect x="0" y="483" width="23" height="23" fill="#ffffff"/><polygon points="0,483 23,483 0,506" fill="#f5f5f8"/><rect x="23" y="483" width="23" height="23" fill="#eff1f5"/><polygon points="23,483 46,483 46,506" fill="#e5e7ee"/><rect x="46" y="460" width="46" height="46" fill="#ebecf2"/><polygon points="46,460 92,460 92,506" fill="#edeff4"/><rect x="92" y="460" width="46" height="46" fill="#ebecf2"/><polygon points="138,460 138,506 92,506" fill="#eeeff4"/><rect x="138" y="460" width="46" height="46" fill="#ffffff"/><rect x="138" y="460" width="23" height="23" fill="#f2f3f7"/><polygon points="161,460 161,483 138,483" fill="#f0f1f5"/><rect x="161" y="460" width="23" height="23" fill="#fefefe"/><polygon points="161,460 184,483 161,483" fill="#f6f6f9"/><rect x="138" y="483" width="23" height="23" fill="#f6f6f9"/><polygon points="138,483 161,483 138,506" fill="#fefefe"/><rect x="161" y="483" width="23" height="23" fill="#fdfdfe"/><polygon points="161,483 184,483 184,506" fill="#fefefe"/><rect x="184" y="460" width="46" height="46" fill="#f7f8fa"/><path d="M 184 506 A 46 46 0 0 1  230 460 L 184 506 A 46 46 0 0 0 230 460" fill="#e5e7ee"/><rect x="230" y="460" width="46" height="46" fill="#fafafb"/><rect x="230" y="460" width="46" height="46" fill="#fbfcfd"/><rect x="276" y="460" width="46" height="46" fill="#ffffff"/><rect x="276" y="460" width="23" height="23" fill="#f4f4f8"/><polygon points="299,460 299,483 276,483" fill="#f7f7fa"/><rect x="299" y="460" width="23" height="23" fill="#fafafc"/><polygon points="299,460 322,483 299,483" fill="#edeef3"/><rect x="276" y="483" width="23" height="23" fill="#fcfdfd"/><polygon points="276,483 299,483 299,506" fill="#e4e6ee"/><rect x="299" y="483" width="23" height="23" fill="#eff0f5"/><polygon points="299,483 322,483 299,506" fill="#f4f5f8"/><rect x="322" y="460" width="46" height="46" fill="#ffffff"/><rect x="322" y="460" width="23" height="23" fill="#eff0f4"/><path d="M 322 483 A 23 23 0 0 1 345 460 L 345 465.75 A 17.25 17.25 0 0 0 327.75 483" fill="#edeef3"/><rect x="345" y="460" width="23" height="23" fill="#e9ebf1"/><path d="M 345 460 A 23 23 0 0 1 368 483 L 362.25 483 A 17.25 17.25 0 0 0 345 465.75" fill="#f4f5f8"/><rect x="322" y="483" width="23" height="23" fill="#f6f7f9"/><path d="M 322 483 A 23 23 0 0 0 345 506 L 345 500.25 A 17.25 17.25 0 0 1 327.75 483" fill="#eeeff4"/><rect x="345" y="483" width="23" height="23" fill="#e6e8ef"/><path d="M 345 506 A 23 23 0 0 0 368 483 L 362.25 483 A 17.25 17.25 0 0 1 345 500.25" fill="#e6e8ef"/><rect x="368" y="460" width="46" height="46" fill="#f3f4f7"/><polygon points="368,460 414,460 414,506" fill="#ebecf2"/><rect x="414" y="460" width="46" height="46" fill="#fdfdfe"/><path d="M 414 460 A 46 46 0 0 1 460 506 L 414 506L414 460" fill="#eaecf2"/><rect x="460" y="460" width="46" height="46" fill="#edeef3"/><path d="M 460 460 A 46 46 0 0 1  506 506 L 460 460 A 46 46 0 0 0 506 506" fill="#fcfcfd"/><rect x="506" y="460" width="46" height="46" fill="#ffffff"/><rect x="506" y="460" width="23" height="23" fill="#f5f6f9"/><polygon points="529,460 529,483 506,483" fill="#e4e6ee"/><rect x="529" y="460" width="23" height="23" fill="#eeeff4"/><polygon points="529,460 552,460 529,483" fill="#fafafc"/><rect x="506" y="483" width="23" height="23" fill="#f3f4f7"/><polygon points="506,483 529,483 529,506" fill="#f9fafb"/><rect x="529" y="483" width="23" height="23" fill="#e7e9ef"/><polygon points="529,483 552,506 529,506" fill="#f6f6f9"/></g></svg>